M48
;DRILL file {KiCad 5.0.2-bee76a0~70~ubuntu18.04.1} date Fri 21 Dec 2018 04:26:59 PM CST
;FORMAT={-:-/ absolute / inch / decimal}
FMAT,2
INCH,TZ
T1C0.0276
T2C0.0315
T3C0.0394
T4C0.0472
T5C0.0591
%
G90
G05
T1
X6.335Y-5.27
X6.335Y-5.37
X3.25Y-6.4
X3.25Y-6.5
X6.675Y-5.87
X6.675Y-5.97
X4.85Y-6.4
X4.85Y-6.5
X4.25Y-6.4
X4.25Y-6.5
X3.85Y-6.4
X3.85Y-6.5
X3.45Y-6.4
X3.45Y-6.5
X6.47Y-5.655
X6.47Y-5.755
X6.47Y-5.87
X6.47Y-5.97
X4.65Y-6.4
X4.65Y-6.5
X5.05Y-6.4
X5.05Y-6.5
X6.675Y-5.66
X6.675Y-5.76
X4.05Y-6.4
X4.05Y-6.5
X4.45Y-6.4
X4.45Y-6.5
X3.65Y-6.4
X3.65Y-6.5
T2
X6.5Y-5.245
X6.5Y-5.545
T3
X3.4Y-5.456
X3.5Y-5.456
X3.6Y-5.456
X3.7Y-5.456
X3.8Y-5.456
X3.9Y-5.456
X4.Y-5.456
X4.1Y-5.456
X4.2Y-5.456
X4.3Y-5.456
X4.4Y-5.456
X4.5Y-5.456
X4.6Y-5.456
X4.7Y-5.456
X4.8Y-5.456
X4.9Y-5.456
X5.Y-5.456
X5.1Y-5.456
X5.2Y-5.456
X5.3Y-5.456
X3.4Y-5.32
X3.5Y-5.32
X3.6Y-5.32
X3.7Y-5.32
X3.8Y-5.32
X3.9Y-5.32
X4.Y-5.32
X4.1Y-5.32
X4.2Y-5.32
X4.3Y-5.32
X4.4Y-5.32
X4.5Y-5.32
X4.6Y-5.32
X4.7Y-5.32
X4.8Y-5.32
X4.9Y-5.32
X5.Y-5.32
X5.1Y-5.32
X5.2Y-5.32
X5.3Y-5.32
X3.396Y-6.25
X3.496Y-6.25
X3.596Y-6.25
X3.696Y-6.25
X3.796Y-6.25
X3.896Y-6.25
X3.996Y-6.25
X4.096Y-6.25
X4.196Y-6.25
X4.296Y-6.25
X4.396Y-6.25
X4.496Y-6.25
X4.596Y-6.25
X4.696Y-6.25
X4.796Y-6.25
X4.896Y-6.25
X4.996Y-6.25
X5.096Y-6.25
X5.196Y-6.25
X5.296Y-6.25
X6.41Y-6.304
X3.4Y-6.12
X3.5Y-6.12
X3.6Y-6.12
X3.7Y-6.12
X3.8Y-6.12
X3.9Y-6.12
X4.Y-6.12
X4.1Y-6.12
X4.2Y-6.12
X4.3Y-6.12
X4.4Y-6.12
X4.5Y-6.12
X4.6Y-6.12
X4.7Y-6.12
X4.8Y-6.12
X4.9Y-6.12
X5.Y-6.12
X5.1Y-6.12
X5.2Y-6.12
X5.3Y-6.12
X6.57Y-6.155
X5.75Y-6.175
X5.75Y-6.275
X5.75Y-5.5
X5.75Y-5.6
X5.75Y-5.7
X5.75Y-5.8
X5.75Y-5.9
X5.75Y-6.
X6.725Y-6.295
X6.625Y-6.5
X6.625Y-6.6
X6.625Y-6.7
T4
X3.225Y-7.425
X3.3628Y-7.425
X3.9372Y-7.425
X4.075Y-7.425
X5.6Y-7.425
X5.7378Y-7.425
X5.2622Y-7.425
X5.4Y-7.425
X5.95Y-7.425
X6.0878Y-7.425
X3.576Y-7.4256
X3.7138Y-7.4256
X4.5872Y-7.425
X4.725Y-7.425
X4.925Y-7.425
X5.0628Y-7.425
X4.25Y-7.425
X4.3878Y-7.425
X6.3Y-7.425
X6.4378Y-7.425
T5
X5.975Y-6.725
X5.975Y-6.9396
X5.975Y-7.1541
X4.575Y-6.725
X4.575Y-6.9396
X4.575Y-7.1541
X3.225Y-6.725
X3.225Y-6.9396
X3.225Y-7.1541
X3.6Y-6.725
X3.6Y-6.9396
X3.6Y-7.1541
X3.95Y-6.725
X3.95Y-6.9396
X3.95Y-7.1541
X4.95Y-6.725
X4.95Y-6.9396
X4.95Y-7.1541
X4.275Y-6.725
X4.275Y-6.9396
X4.275Y-7.1541
X5.3Y-6.725
X5.3Y-6.9396
X5.3Y-7.1541
X6.325Y-6.725
X6.325Y-6.9396
X6.325Y-7.1541
X5.625Y-6.725
X5.625Y-6.9396
X5.625Y-7.1541
T0
M30
