G04 #@! TF.GenerationSoftware,KiCad,Pcbnew,5.0.2-bee76a0~70~ubuntu18.04.1*
G04 #@! TF.CreationDate,2018-12-21T16:27:28-06:00*
G04 #@! TF.ProjectId,pcb,7063622e-6b69-4636-9164-5f7063625858,rev?*
G04 #@! TF.SameCoordinates,Original*
G04 #@! TF.FileFunction,Legend,Top*
G04 #@! TF.FilePolarity,Positive*
%FSLAX46Y46*%
G04 Gerber Fmt 4.6, Leading zero omitted, Abs format (unit mm)*
G04 Created by KiCad (PCBNEW 5.0.2-bee76a0~70~ubuntu18.04.1) date Fri 21 Dec 2018 04:27:28 PM CST*
%MOMM*%
%LPD*%
G01*
G04 APERTURE LIST*
%ADD10C,0.120000*%
%ADD11C,0.150000*%
G04 APERTURE END LIST*
D10*
G04 #@! TO.C,J14*
X88430001Y-192510001D02*
X89930001Y-192510001D01*
X88430001Y-190770001D02*
X88430001Y-192510001D01*
X96490001Y-185150001D02*
X96490001Y-192270001D01*
X88670001Y-185150001D02*
X88670001Y-192270001D01*
X88670001Y-192270001D02*
X96490001Y-192270001D01*
X88670001Y-185150001D02*
X96490001Y-185150001D01*
X88670001Y-190710001D02*
X96490001Y-190710001D01*
X95885001Y-188610001D02*
G75*
G03X95885001Y-188610001I-1555000J0D01*
G01*
X90857012Y-190165493D02*
G75*
G02X90222001Y-190042001I-27011J1555492D01*
G01*
X89397892Y-189217743D02*
G75*
G02X89398001Y-188002001I1432109J607742D01*
G01*
X90222259Y-187177892D02*
G75*
G02X91438001Y-187178001I607742J-1432109D01*
G01*
X92262110Y-188002259D02*
G75*
G02X92262001Y-189218001I-1432109J-607742D01*
G01*
X91437588Y-190041386D02*
G75*
G02X90830001Y-190165001I-607587J1431385D01*
G01*
G04 #@! TO.C,J15*
X82522587Y-190026385D02*
G75*
G02X81915000Y-190150000I-607587J1431385D01*
G01*
X83347109Y-187987258D02*
G75*
G02X83347000Y-189203000I-1432109J-607742D01*
G01*
X81307258Y-187162891D02*
G75*
G02X82523000Y-187163000I607742J-1432109D01*
G01*
X80482891Y-189202742D02*
G75*
G02X80483000Y-187987000I1432109J607742D01*
G01*
X81942011Y-190150492D02*
G75*
G02X81307000Y-190027000I-27011J1555492D01*
G01*
X86970000Y-188595000D02*
G75*
G03X86970000Y-188595000I-1555000J0D01*
G01*
X79755000Y-190695000D02*
X87575000Y-190695000D01*
X79755000Y-185135000D02*
X87575000Y-185135000D01*
X79755000Y-192255000D02*
X87575000Y-192255000D01*
X79755000Y-185135000D02*
X79755000Y-192255000D01*
X87575000Y-185135000D02*
X87575000Y-192255000D01*
X79515000Y-190755000D02*
X79515000Y-192495000D01*
X79515000Y-192495000D02*
X81015000Y-192495000D01*
G04 #@! TO.C,J7*
X139840000Y-192495000D02*
X141340000Y-192495000D01*
X139840000Y-190755000D02*
X139840000Y-192495000D01*
X147900000Y-185135000D02*
X147900000Y-192255000D01*
X140080000Y-185135000D02*
X140080000Y-192255000D01*
X140080000Y-192255000D02*
X147900000Y-192255000D01*
X140080000Y-185135000D02*
X147900000Y-185135000D01*
X140080000Y-190695000D02*
X147900000Y-190695000D01*
X147295000Y-188595000D02*
G75*
G03X147295000Y-188595000I-1555000J0D01*
G01*
X142267011Y-190150492D02*
G75*
G02X141632000Y-190027000I-27011J1555492D01*
G01*
X140807891Y-189202742D02*
G75*
G02X140808000Y-187987000I1432109J607742D01*
G01*
X141632258Y-187162891D02*
G75*
G02X142848000Y-187163000I607742J-1432109D01*
G01*
X143672109Y-187987258D02*
G75*
G02X143672000Y-189203000I-1432109J-607742D01*
G01*
X142847587Y-190026385D02*
G75*
G02X142240000Y-190150000I-607587J1431385D01*
G01*
G04 #@! TO.C,J10*
X122695000Y-192495000D02*
X124195000Y-192495000D01*
X122695000Y-190755000D02*
X122695000Y-192495000D01*
X130755000Y-185135000D02*
X130755000Y-192255000D01*
X122935000Y-185135000D02*
X122935000Y-192255000D01*
X122935000Y-192255000D02*
X130755000Y-192255000D01*
X122935000Y-185135000D02*
X130755000Y-185135000D01*
X122935000Y-190695000D02*
X130755000Y-190695000D01*
X130150000Y-188595000D02*
G75*
G03X130150000Y-188595000I-1555000J0D01*
G01*
X125122011Y-190150492D02*
G75*
G02X124487000Y-190027000I-27011J1555492D01*
G01*
X123662891Y-189202742D02*
G75*
G02X123663000Y-187987000I1432109J607742D01*
G01*
X124487258Y-187162891D02*
G75*
G02X125703000Y-187163000I607742J-1432109D01*
G01*
X126527109Y-187987258D02*
G75*
G02X126527000Y-189203000I-1432109J-607742D01*
G01*
X125702587Y-190026385D02*
G75*
G02X125095000Y-190150000I-607587J1431385D01*
G01*
G04 #@! TO.C,J13*
X100612587Y-190026385D02*
G75*
G02X100005000Y-190150000I-607587J1431385D01*
G01*
X101437109Y-187987258D02*
G75*
G02X101437000Y-189203000I-1432109J-607742D01*
G01*
X99397258Y-187162891D02*
G75*
G02X100613000Y-187163000I607742J-1432109D01*
G01*
X98572891Y-189202742D02*
G75*
G02X98573000Y-187987000I1432109J607742D01*
G01*
X100032011Y-190150492D02*
G75*
G02X99397000Y-190027000I-27011J1555492D01*
G01*
X105060000Y-188595000D02*
G75*
G03X105060000Y-188595000I-1555000J0D01*
G01*
X97845000Y-190695000D02*
X105665000Y-190695000D01*
X97845000Y-185135000D02*
X105665000Y-185135000D01*
X97845000Y-192255000D02*
X105665000Y-192255000D01*
X97845000Y-185135000D02*
X97845000Y-192255000D01*
X105665000Y-185135000D02*
X105665000Y-192255000D01*
X97605000Y-190755000D02*
X97605000Y-192495000D01*
X97605000Y-192495000D02*
X99105000Y-192495000D01*
G04 #@! TO.C,J11*
X117122587Y-190026385D02*
G75*
G02X116515000Y-190150000I-607587J1431385D01*
G01*
X117947109Y-187987258D02*
G75*
G02X117947000Y-189203000I-1432109J-607742D01*
G01*
X115907258Y-187162891D02*
G75*
G02X117123000Y-187163000I607742J-1432109D01*
G01*
X115082891Y-189202742D02*
G75*
G02X115083000Y-187987000I1432109J607742D01*
G01*
X116542011Y-190150492D02*
G75*
G02X115907000Y-190027000I-27011J1555492D01*
G01*
X121570000Y-188595000D02*
G75*
G03X121570000Y-188595000I-1555000J0D01*
G01*
X114355000Y-190695000D02*
X122175000Y-190695000D01*
X114355000Y-185135000D02*
X122175000Y-185135000D01*
X114355000Y-192255000D02*
X122175000Y-192255000D01*
X114355000Y-185135000D02*
X114355000Y-192255000D01*
X122175000Y-185135000D02*
X122175000Y-192255000D01*
X114115000Y-190755000D02*
X114115000Y-192495000D01*
X114115000Y-192495000D02*
X115615000Y-192495000D01*
G04 #@! TO.C,J4*
X144720000Y-140970000D02*
X147380000Y-140970000D01*
X144720000Y-140970000D02*
X144720000Y-153730000D01*
X144720000Y-153730000D02*
X147380000Y-153730000D01*
X147380000Y-140970000D02*
X147380000Y-153730000D01*
X147380000Y-138370000D02*
X147380000Y-139700000D01*
X146050000Y-138370000D02*
X147380000Y-138370000D01*
G04 #@! TO.C,D1*
X165258000Y-149098000D02*
G75*
G03X165258000Y-149098000I-920000J0D01*
G01*
X164338000Y-150018000D02*
X164338000Y-150638000D01*
G04 #@! TO.C,D2*
X170465000Y-151638000D02*
G75*
G03X170465000Y-151638000I-920000J0D01*
G01*
X169545000Y-150718000D02*
X169545000Y-150098000D01*
G04 #@! TO.C,J1*
X178365000Y-171390000D02*
X169735000Y-171390000D01*
X178365000Y-171271905D02*
X169735000Y-171271905D01*
X178365000Y-171153810D02*
X169735000Y-171153810D01*
X178365000Y-171035715D02*
X169735000Y-171035715D01*
X178365000Y-170917620D02*
X169735000Y-170917620D01*
X178365000Y-170799525D02*
X169735000Y-170799525D01*
X178365000Y-170681430D02*
X169735000Y-170681430D01*
X178365000Y-170563335D02*
X169735000Y-170563335D01*
X178365000Y-170445240D02*
X169735000Y-170445240D01*
X178365000Y-170327145D02*
X169735000Y-170327145D01*
X178365000Y-170209050D02*
X169735000Y-170209050D01*
X178365000Y-170090955D02*
X169735000Y-170090955D01*
X178365000Y-169972860D02*
X169735000Y-169972860D01*
X178365000Y-169854765D02*
X169735000Y-169854765D01*
X178365000Y-169736670D02*
X169735000Y-169736670D01*
X178365000Y-169618575D02*
X169735000Y-169618575D01*
X178365000Y-169500480D02*
X169735000Y-169500480D01*
X178365000Y-169382385D02*
X169735000Y-169382385D01*
X178365000Y-169264290D02*
X169735000Y-169264290D01*
X178365000Y-169146195D02*
X169735000Y-169146195D01*
X178365000Y-169028100D02*
X169735000Y-169028100D01*
X169735000Y-170540000D02*
X169385000Y-170540000D01*
X169735000Y-169820000D02*
X169385000Y-169820000D01*
X169735000Y-168000000D02*
X169325000Y-168000000D01*
X169735000Y-167280000D02*
X169325000Y-167280000D01*
X169735000Y-165460000D02*
X169325000Y-165460000D01*
X169735000Y-164740000D02*
X169325000Y-164740000D01*
X178365000Y-168910000D02*
X169735000Y-168910000D01*
X178365000Y-166370000D02*
X169735000Y-166370000D01*
X178365000Y-171510000D02*
X169735000Y-171510000D01*
X169735000Y-171510000D02*
X169735000Y-163770000D01*
X178365000Y-163770000D02*
X169735000Y-163770000D01*
X178365000Y-171510000D02*
X178365000Y-163770000D01*
X167165000Y-171510000D02*
X167165000Y-170180000D01*
X168275000Y-171510000D02*
X167165000Y-171510000D01*
G04 #@! TO.C,J2*
X161484000Y-161451600D02*
X164144000Y-161451600D01*
X161484000Y-161391600D02*
X161484000Y-161451600D01*
X164144000Y-161391600D02*
X164144000Y-161451600D01*
X161484000Y-161391600D02*
X164144000Y-161391600D01*
X161484000Y-160121600D02*
X161484000Y-158791600D01*
X161484000Y-158791600D02*
X162814000Y-158791600D01*
G04 #@! TO.C,J3*
X133350000Y-133798000D02*
X133350000Y-136458000D01*
X133350000Y-133798000D02*
X85030000Y-133798000D01*
X85030000Y-133798000D02*
X85030000Y-136458000D01*
X133350000Y-136458000D02*
X85030000Y-136458000D01*
X135950000Y-136458000D02*
X134620000Y-136458000D01*
X135950000Y-135128000D02*
X135950000Y-136458000D01*
G04 #@! TO.C,J5*
X160627587Y-190026385D02*
G75*
G02X160020000Y-190150000I-607587J1431385D01*
G01*
X161452109Y-187987258D02*
G75*
G02X161452000Y-189203000I-1432109J-607742D01*
G01*
X159412258Y-187162891D02*
G75*
G02X160628000Y-187163000I607742J-1432109D01*
G01*
X158587891Y-189202742D02*
G75*
G02X158588000Y-187987000I1432109J607742D01*
G01*
X160047011Y-190150492D02*
G75*
G02X159412000Y-190027000I-27011J1555492D01*
G01*
X165075000Y-188595000D02*
G75*
G03X165075000Y-188595000I-1555000J0D01*
G01*
X157860000Y-190695000D02*
X165680000Y-190695000D01*
X157860000Y-185135000D02*
X165680000Y-185135000D01*
X157860000Y-192255000D02*
X165680000Y-192255000D01*
X157860000Y-185135000D02*
X157860000Y-192255000D01*
X165680000Y-185135000D02*
X165680000Y-192255000D01*
X157620000Y-190755000D02*
X157620000Y-192495000D01*
X157620000Y-192495000D02*
X159120000Y-192495000D01*
G04 #@! TO.C,J6*
X148730000Y-192495000D02*
X150230000Y-192495000D01*
X148730000Y-190755000D02*
X148730000Y-192495000D01*
X156790000Y-185135000D02*
X156790000Y-192255000D01*
X148970000Y-185135000D02*
X148970000Y-192255000D01*
X148970000Y-192255000D02*
X156790000Y-192255000D01*
X148970000Y-185135000D02*
X156790000Y-185135000D01*
X148970000Y-190695000D02*
X156790000Y-190695000D01*
X156185000Y-188595000D02*
G75*
G03X156185000Y-188595000I-1555000J0D01*
G01*
X151157011Y-190150492D02*
G75*
G02X150522000Y-190027000I-27011J1555492D01*
G01*
X149697891Y-189202742D02*
G75*
G02X149698000Y-187987000I1432109J607742D01*
G01*
X150522258Y-187162891D02*
G75*
G02X151738000Y-187163000I607742J-1432109D01*
G01*
X152562109Y-187987258D02*
G75*
G02X152562000Y-189203000I-1432109J-607742D01*
G01*
X151737587Y-190026385D02*
G75*
G02X151130000Y-190150000I-607587J1431385D01*
G01*
G04 #@! TO.C,J8*
X134267587Y-190026385D02*
G75*
G02X133660000Y-190150000I-607587J1431385D01*
G01*
X135092109Y-187987258D02*
G75*
G02X135092000Y-189203000I-1432109J-607742D01*
G01*
X133052258Y-187162891D02*
G75*
G02X134268000Y-187163000I607742J-1432109D01*
G01*
X132227891Y-189202742D02*
G75*
G02X132228000Y-187987000I1432109J607742D01*
G01*
X133687011Y-190150492D02*
G75*
G02X133052000Y-190027000I-27011J1555492D01*
G01*
X138715000Y-188595000D02*
G75*
G03X138715000Y-188595000I-1555000J0D01*
G01*
X131500000Y-190695000D02*
X139320000Y-190695000D01*
X131500000Y-185135000D02*
X139320000Y-185135000D01*
X131500000Y-192255000D02*
X139320000Y-192255000D01*
X131500000Y-185135000D02*
X131500000Y-192255000D01*
X139320000Y-185135000D02*
X139320000Y-192255000D01*
X131260000Y-190755000D02*
X131260000Y-192495000D01*
X131260000Y-192495000D02*
X132760000Y-192495000D01*
G04 #@! TO.C,J9*
X87630000Y-139912400D02*
X87630000Y-137252400D01*
X87630000Y-139912400D02*
X135950000Y-139912400D01*
X135950000Y-139912400D02*
X135950000Y-137252400D01*
X87630000Y-137252400D02*
X135950000Y-137252400D01*
X85030000Y-137252400D02*
X86360000Y-137252400D01*
X85030000Y-138582400D02*
X85030000Y-137252400D01*
G04 #@! TO.C,J12*
X105550000Y-192495000D02*
X107050000Y-192495000D01*
X105550000Y-190755000D02*
X105550000Y-192495000D01*
X113610000Y-185135000D02*
X113610000Y-192255000D01*
X105790000Y-185135000D02*
X105790000Y-192255000D01*
X105790000Y-192255000D02*
X113610000Y-192255000D01*
X105790000Y-185135000D02*
X113610000Y-185135000D01*
X105790000Y-190695000D02*
X113610000Y-190695000D01*
X113005000Y-188595000D02*
G75*
G03X113005000Y-188595000I-1555000J0D01*
G01*
X107977011Y-190150492D02*
G75*
G02X107342000Y-190027000I-27011J1555492D01*
G01*
X106517891Y-189202742D02*
G75*
G02X106518000Y-187987000I1432109J607742D01*
G01*
X107342258Y-187162891D02*
G75*
G02X108558000Y-187163000I607742J-1432109D01*
G01*
X109382109Y-187987258D02*
G75*
G02X109382000Y-189203000I-1432109J-607742D01*
G01*
X108557587Y-190026385D02*
G75*
G02X107950000Y-190150000I-607587J1431385D01*
G01*
G04 #@! TO.C,J16*
X85030000Y-155448000D02*
X85030000Y-154118000D01*
X85030000Y-154118000D02*
X86360000Y-154118000D01*
X87630000Y-154118000D02*
X135950000Y-154118000D01*
X135950000Y-156778000D02*
X135950000Y-154118000D01*
X87630000Y-156778000D02*
X135950000Y-156778000D01*
X87630000Y-156778000D02*
X87630000Y-154118000D01*
G04 #@! TO.C,J17*
X135848400Y-158750000D02*
X135848400Y-160080000D01*
X135848400Y-160080000D02*
X134518400Y-160080000D01*
X133248400Y-160080000D02*
X84928400Y-160080000D01*
X84928400Y-157420000D02*
X84928400Y-160080000D01*
X133248400Y-157420000D02*
X84928400Y-157420000D01*
X133248400Y-157420000D02*
X133248400Y-160080000D01*
G04 #@! TO.C,J18*
X165548000Y-155007000D02*
X166878000Y-155007000D01*
X165548000Y-156337000D02*
X165548000Y-155007000D01*
X165548000Y-157607000D02*
X168208000Y-157607000D01*
X168208000Y-157607000D02*
X168208000Y-157667000D01*
X165548000Y-157607000D02*
X165548000Y-157667000D01*
X165548000Y-157667000D02*
X168208000Y-157667000D01*
G04 #@! TO.C,J19*
X169485000Y-161223000D02*
X172145000Y-161223000D01*
X169485000Y-161163000D02*
X169485000Y-161223000D01*
X172145000Y-161163000D02*
X172145000Y-161223000D01*
X169485000Y-161163000D02*
X172145000Y-161163000D01*
X169485000Y-159893000D02*
X169485000Y-158563000D01*
X169485000Y-158563000D02*
X170815000Y-158563000D01*
G04 #@! TO.C,Q1*
X162475000Y-168345000D02*
X162475000Y-169415000D01*
X162475000Y-172215000D02*
X162475000Y-174866000D01*
X162475000Y-177665000D02*
X162475000Y-180315000D01*
X162475000Y-183115000D02*
X162475000Y-184185000D01*
X157435000Y-168345000D02*
X157435000Y-184185000D01*
X162475000Y-168345000D02*
X157435000Y-168345000D01*
X162475000Y-184185000D02*
X157435000Y-184185000D01*
X160234000Y-168345000D02*
X160234000Y-169415000D01*
X160234000Y-172215000D02*
X160234000Y-174866000D01*
X160234000Y-177665000D02*
X160234000Y-180315000D01*
X160234000Y-183115000D02*
X160234000Y-184185000D01*
X162475000Y-174665000D02*
X160234000Y-174665000D01*
X162475000Y-177866000D02*
X160234000Y-177866000D01*
G04 #@! TO.C,Q2*
X153585000Y-168345000D02*
X153585000Y-169415000D01*
X153585000Y-172215000D02*
X153585000Y-174866000D01*
X153585000Y-177665000D02*
X153585000Y-180315000D01*
X153585000Y-183115000D02*
X153585000Y-184185000D01*
X148545000Y-168345000D02*
X148545000Y-184185000D01*
X153585000Y-168345000D02*
X148545000Y-168345000D01*
X153585000Y-184185000D02*
X148545000Y-184185000D01*
X151344000Y-168345000D02*
X151344000Y-169415000D01*
X151344000Y-172215000D02*
X151344000Y-174866000D01*
X151344000Y-177665000D02*
X151344000Y-180315000D01*
X151344000Y-183115000D02*
X151344000Y-184185000D01*
X153585000Y-174665000D02*
X151344000Y-174665000D01*
X153585000Y-177866000D02*
X151344000Y-177866000D01*
G04 #@! TO.C,Q3*
X144695000Y-177866000D02*
X142454000Y-177866000D01*
X144695000Y-174665000D02*
X142454000Y-174665000D01*
X142454000Y-183115000D02*
X142454000Y-184185000D01*
X142454000Y-177665000D02*
X142454000Y-180315000D01*
X142454000Y-172215000D02*
X142454000Y-174866000D01*
X142454000Y-168345000D02*
X142454000Y-169415000D01*
X144695000Y-184185000D02*
X139655000Y-184185000D01*
X144695000Y-168345000D02*
X139655000Y-168345000D01*
X139655000Y-168345000D02*
X139655000Y-184185000D01*
X144695000Y-183115000D02*
X144695000Y-184185000D01*
X144695000Y-177665000D02*
X144695000Y-180315000D01*
X144695000Y-172215000D02*
X144695000Y-174866000D01*
X144695000Y-168345000D02*
X144695000Y-169415000D01*
G04 #@! TO.C,Q4*
X136440000Y-168345000D02*
X136440000Y-169415000D01*
X136440000Y-172215000D02*
X136440000Y-174866000D01*
X136440000Y-177665000D02*
X136440000Y-180315000D01*
X136440000Y-183115000D02*
X136440000Y-184185000D01*
X131400000Y-168345000D02*
X131400000Y-184185000D01*
X136440000Y-168345000D02*
X131400000Y-168345000D01*
X136440000Y-184185000D02*
X131400000Y-184185000D01*
X134199000Y-168345000D02*
X134199000Y-169415000D01*
X134199000Y-172215000D02*
X134199000Y-174866000D01*
X134199000Y-177665000D02*
X134199000Y-180315000D01*
X134199000Y-183115000D02*
X134199000Y-184185000D01*
X136440000Y-174665000D02*
X134199000Y-174665000D01*
X136440000Y-177866000D02*
X134199000Y-177866000D01*
G04 #@! TO.C,Q5*
X127550000Y-177866000D02*
X125309000Y-177866000D01*
X127550000Y-174665000D02*
X125309000Y-174665000D01*
X125309000Y-183115000D02*
X125309000Y-184185000D01*
X125309000Y-177665000D02*
X125309000Y-180315000D01*
X125309000Y-172215000D02*
X125309000Y-174866000D01*
X125309000Y-168345000D02*
X125309000Y-169415000D01*
X127550000Y-184185000D02*
X122510000Y-184185000D01*
X127550000Y-168345000D02*
X122510000Y-168345000D01*
X122510000Y-168345000D02*
X122510000Y-184185000D01*
X127550000Y-183115000D02*
X127550000Y-184185000D01*
X127550000Y-177665000D02*
X127550000Y-180315000D01*
X127550000Y-172215000D02*
X127550000Y-174866000D01*
X127550000Y-168345000D02*
X127550000Y-169415000D01*
G04 #@! TO.C,Q6*
X118025000Y-168345000D02*
X118025000Y-169415000D01*
X118025000Y-172215000D02*
X118025000Y-174866000D01*
X118025000Y-177665000D02*
X118025000Y-180315000D01*
X118025000Y-183115000D02*
X118025000Y-184185000D01*
X112985000Y-168345000D02*
X112985000Y-184185000D01*
X118025000Y-168345000D02*
X112985000Y-168345000D01*
X118025000Y-184185000D02*
X112985000Y-184185000D01*
X115784000Y-168345000D02*
X115784000Y-169415000D01*
X115784000Y-172215000D02*
X115784000Y-174866000D01*
X115784000Y-177665000D02*
X115784000Y-180315000D01*
X115784000Y-183115000D02*
X115784000Y-184185000D01*
X118025000Y-174665000D02*
X115784000Y-174665000D01*
X118025000Y-177866000D02*
X115784000Y-177866000D01*
G04 #@! TO.C,Q7*
X110405000Y-177866000D02*
X108164000Y-177866000D01*
X110405000Y-174665000D02*
X108164000Y-174665000D01*
X108164000Y-183115000D02*
X108164000Y-184185000D01*
X108164000Y-177665000D02*
X108164000Y-180315000D01*
X108164000Y-172215000D02*
X108164000Y-174866000D01*
X108164000Y-168345000D02*
X108164000Y-169415000D01*
X110405000Y-184185000D02*
X105365000Y-184185000D01*
X110405000Y-168345000D02*
X105365000Y-168345000D01*
X105365000Y-168345000D02*
X105365000Y-184185000D01*
X110405000Y-183115000D02*
X110405000Y-184185000D01*
X110405000Y-177665000D02*
X110405000Y-180315000D01*
X110405000Y-172215000D02*
X110405000Y-174866000D01*
X110405000Y-168345000D02*
X110405000Y-169415000D01*
G04 #@! TO.C,Q8*
X102150000Y-168345000D02*
X102150000Y-169415000D01*
X102150000Y-172215000D02*
X102150000Y-174866000D01*
X102150000Y-177665000D02*
X102150000Y-180315000D01*
X102150000Y-183115000D02*
X102150000Y-184185000D01*
X97110000Y-168345000D02*
X97110000Y-184185000D01*
X102150000Y-168345000D02*
X97110000Y-168345000D01*
X102150000Y-184185000D02*
X97110000Y-184185000D01*
X99909000Y-168345000D02*
X99909000Y-169415000D01*
X99909000Y-172215000D02*
X99909000Y-174866000D01*
X99909000Y-177665000D02*
X99909000Y-180315000D01*
X99909000Y-183115000D02*
X99909000Y-184185000D01*
X102150000Y-174665000D02*
X99909000Y-174665000D01*
X102150000Y-177866000D02*
X99909000Y-177866000D01*
G04 #@! TO.C,Q9*
X93260000Y-177866000D02*
X91019000Y-177866000D01*
X93260000Y-174665000D02*
X91019000Y-174665000D01*
X91019000Y-183115000D02*
X91019000Y-184185000D01*
X91019000Y-177665000D02*
X91019000Y-180315000D01*
X91019000Y-172215000D02*
X91019000Y-174866000D01*
X91019000Y-168345000D02*
X91019000Y-169415000D01*
X93260000Y-184185000D02*
X88220000Y-184185000D01*
X93260000Y-168345000D02*
X88220000Y-168345000D01*
X88220000Y-168345000D02*
X88220000Y-184185000D01*
X93260000Y-183115000D02*
X93260000Y-184185000D01*
X93260000Y-177665000D02*
X93260000Y-180315000D01*
X93260000Y-172215000D02*
X93260000Y-174866000D01*
X93260000Y-168345000D02*
X93260000Y-169415000D01*
G04 #@! TO.C,Q10*
X83735000Y-177866000D02*
X81494000Y-177866000D01*
X83735000Y-174665000D02*
X81494000Y-174665000D01*
X81494000Y-183115000D02*
X81494000Y-184185000D01*
X81494000Y-177665000D02*
X81494000Y-180315000D01*
X81494000Y-172215000D02*
X81494000Y-174866000D01*
X81494000Y-168345000D02*
X81494000Y-169415000D01*
X83735000Y-184185000D02*
X78695000Y-184185000D01*
X83735000Y-168345000D02*
X78695000Y-168345000D01*
X78695000Y-168345000D02*
X78695000Y-184185000D01*
X83735000Y-183115000D02*
X83735000Y-184185000D01*
X83735000Y-177665000D02*
X83735000Y-180315000D01*
X83735000Y-172215000D02*
X83735000Y-174866000D01*
X83735000Y-168345000D02*
X83735000Y-169415000D01*
G04 #@! TO.C,R1*
X164338000Y-144557000D02*
X164338000Y-145177000D01*
X165258000Y-143637000D02*
G75*
G03X165258000Y-143637000I-920000J0D01*
G01*
G04 #@! TO.C,R2*
X170465000Y-143764000D02*
G75*
G03X170465000Y-143764000I-920000J0D01*
G01*
X169545000Y-144684000D02*
X169545000Y-145304000D01*
G04 #@! TO.C,R3*
X160909000Y-135478000D02*
X160909000Y-134858000D01*
X161829000Y-136398000D02*
G75*
G03X161829000Y-136398000I-920000J0D01*
G01*
G04 #@! TO.C,R4*
X128270000Y-163480000D02*
X128270000Y-164100000D01*
X129190000Y-162560000D02*
G75*
G03X129190000Y-162560000I-920000J0D01*
G01*
G04 #@! TO.C,R5*
X124110000Y-162560000D02*
G75*
G03X124110000Y-162560000I-920000J0D01*
G01*
X123190000Y-163480000D02*
X123190000Y-164100000D01*
G04 #@! TO.C,R6*
X118110000Y-163480000D02*
X118110000Y-164100000D01*
X119030000Y-162560000D02*
G75*
G03X119030000Y-162560000I-920000J0D01*
G01*
G04 #@! TO.C,R7*
X113950000Y-162560000D02*
G75*
G03X113950000Y-162560000I-920000J0D01*
G01*
X113030000Y-163480000D02*
X113030000Y-164100000D01*
G04 #@! TO.C,R8*
X108870000Y-162560000D02*
G75*
G03X108870000Y-162560000I-920000J0D01*
G01*
X107950000Y-163480000D02*
X107950000Y-164100000D01*
G04 #@! TO.C,R9*
X102870000Y-163480000D02*
X102870000Y-164100000D01*
X103790000Y-162560000D02*
G75*
G03X103790000Y-162560000I-920000J0D01*
G01*
G04 #@! TO.C,R10*
X98710000Y-162560000D02*
G75*
G03X98710000Y-162560000I-920000J0D01*
G01*
X97790000Y-163480000D02*
X97790000Y-164100000D01*
G04 #@! TO.C,R11*
X92710000Y-163480000D02*
X92710000Y-164100000D01*
X93630000Y-162560000D02*
G75*
G03X93630000Y-162560000I-920000J0D01*
G01*
G04 #@! TO.C,R12*
X88550000Y-162560000D02*
G75*
G03X88550000Y-162560000I-920000J0D01*
G01*
X87630000Y-163480000D02*
X87630000Y-164100000D01*
G04 #@! TO.C,R13*
X82550000Y-163480000D02*
X82550000Y-164100000D01*
X83470000Y-162560000D02*
G75*
G03X83470000Y-162560000I-920000J0D01*
G01*
G04 #@! TO.C,SW1*
X162990000Y-140443000D02*
X162990000Y-133622000D01*
X167210000Y-140443000D02*
X167210000Y-133622000D01*
X162990000Y-140443000D02*
X164060000Y-140443000D01*
X166140000Y-140443000D02*
X167210000Y-140443000D01*
X162990000Y-133622000D02*
X164110000Y-133622000D01*
X166090000Y-133622000D02*
X167210000Y-133622000D01*
X162750000Y-140683000D02*
X162750000Y-139300000D01*
X162750000Y-140683000D02*
X164060000Y-140683000D01*
X164465000Y-138843000D02*
X165735000Y-138843000D01*
X165735000Y-138843000D02*
X165735000Y-135223000D01*
X165735000Y-135223000D02*
X164465000Y-135223000D01*
X164465000Y-135223000D02*
X164465000Y-138843000D01*
X164585000Y-138843000D02*
X164585000Y-137636333D01*
X164705000Y-138843000D02*
X164705000Y-137636333D01*
X164825000Y-138843000D02*
X164825000Y-137636333D01*
X164945000Y-138843000D02*
X164945000Y-137636333D01*
X165065000Y-138843000D02*
X165065000Y-137636333D01*
X165185000Y-138843000D02*
X165185000Y-137636333D01*
X165305000Y-138843000D02*
X165305000Y-137636333D01*
X165425000Y-138843000D02*
X165425000Y-137636333D01*
X165545000Y-138843000D02*
X165545000Y-137636333D01*
X165665000Y-138843000D02*
X165665000Y-137636333D01*
X164465000Y-137636333D02*
X165735000Y-137636333D01*
G04 #@! TO.C,J20*
X144720000Y-160715000D02*
X147380000Y-160715000D01*
X144720000Y-158115000D02*
X144720000Y-160715000D01*
X147380000Y-158115000D02*
X147380000Y-160715000D01*
X144720000Y-158115000D02*
X147380000Y-158115000D01*
X144720000Y-156845000D02*
X144720000Y-155515000D01*
X144720000Y-155515000D02*
X146050000Y-155515000D01*
G04 #@! TO.C,J14*
D11*
X91770477Y-183602381D02*
X91770477Y-184316667D01*
X91722858Y-184459524D01*
X91627620Y-184554762D01*
X91484762Y-184602381D01*
X91389524Y-184602381D01*
X92770477Y-184602381D02*
X92199048Y-184602381D01*
X92484762Y-184602381D02*
X92484762Y-183602381D01*
X92389524Y-183745239D01*
X92294286Y-183840477D01*
X92199048Y-183888096D01*
X93627620Y-183935715D02*
X93627620Y-184602381D01*
X93389524Y-183554762D02*
X93151429Y-184269048D01*
X93770477Y-184269048D01*
G04 #@! TO.C,J15*
X82855476Y-183587380D02*
X82855476Y-184301666D01*
X82807857Y-184444523D01*
X82712619Y-184539761D01*
X82569761Y-184587380D01*
X82474523Y-184587380D01*
X83855476Y-184587380D02*
X83284047Y-184587380D01*
X83569761Y-184587380D02*
X83569761Y-183587380D01*
X83474523Y-183730238D01*
X83379285Y-183825476D01*
X83284047Y-183873095D01*
X84760238Y-183587380D02*
X84284047Y-183587380D01*
X84236428Y-184063571D01*
X84284047Y-184015952D01*
X84379285Y-183968333D01*
X84617380Y-183968333D01*
X84712619Y-184015952D01*
X84760238Y-184063571D01*
X84807857Y-184158809D01*
X84807857Y-184396904D01*
X84760238Y-184492142D01*
X84712619Y-184539761D01*
X84617380Y-184587380D01*
X84379285Y-184587380D01*
X84284047Y-184539761D01*
X84236428Y-184492142D01*
G04 #@! TO.C,J7*
X143656666Y-183587380D02*
X143656666Y-184301666D01*
X143609047Y-184444523D01*
X143513809Y-184539761D01*
X143370952Y-184587380D01*
X143275714Y-184587380D01*
X144037619Y-183587380D02*
X144704285Y-183587380D01*
X144275714Y-184587380D01*
G04 #@! TO.C,J10*
X126035476Y-183587380D02*
X126035476Y-184301666D01*
X125987857Y-184444523D01*
X125892619Y-184539761D01*
X125749761Y-184587380D01*
X125654523Y-184587380D01*
X127035476Y-184587380D02*
X126464047Y-184587380D01*
X126749761Y-184587380D02*
X126749761Y-183587380D01*
X126654523Y-183730238D01*
X126559285Y-183825476D01*
X126464047Y-183873095D01*
X127654523Y-183587380D02*
X127749761Y-183587380D01*
X127845000Y-183635000D01*
X127892619Y-183682619D01*
X127940238Y-183777857D01*
X127987857Y-183968333D01*
X127987857Y-184206428D01*
X127940238Y-184396904D01*
X127892619Y-184492142D01*
X127845000Y-184539761D01*
X127749761Y-184587380D01*
X127654523Y-184587380D01*
X127559285Y-184539761D01*
X127511666Y-184492142D01*
X127464047Y-184396904D01*
X127416428Y-184206428D01*
X127416428Y-183968333D01*
X127464047Y-183777857D01*
X127511666Y-183682619D01*
X127559285Y-183635000D01*
X127654523Y-183587380D01*
G04 #@! TO.C,J13*
X100945476Y-183587380D02*
X100945476Y-184301666D01*
X100897857Y-184444523D01*
X100802619Y-184539761D01*
X100659761Y-184587380D01*
X100564523Y-184587380D01*
X101945476Y-184587380D02*
X101374047Y-184587380D01*
X101659761Y-184587380D02*
X101659761Y-183587380D01*
X101564523Y-183730238D01*
X101469285Y-183825476D01*
X101374047Y-183873095D01*
X102278809Y-183587380D02*
X102897857Y-183587380D01*
X102564523Y-183968333D01*
X102707380Y-183968333D01*
X102802619Y-184015952D01*
X102850238Y-184063571D01*
X102897857Y-184158809D01*
X102897857Y-184396904D01*
X102850238Y-184492142D01*
X102802619Y-184539761D01*
X102707380Y-184587380D01*
X102421666Y-184587380D01*
X102326428Y-184539761D01*
X102278809Y-184492142D01*
G04 #@! TO.C,J11*
X117455476Y-183587380D02*
X117455476Y-184301666D01*
X117407857Y-184444523D01*
X117312619Y-184539761D01*
X117169761Y-184587380D01*
X117074523Y-184587380D01*
X118455476Y-184587380D02*
X117884047Y-184587380D01*
X118169761Y-184587380D02*
X118169761Y-183587380D01*
X118074523Y-183730238D01*
X117979285Y-183825476D01*
X117884047Y-183873095D01*
X119407857Y-184587380D02*
X118836428Y-184587380D01*
X119122142Y-184587380D02*
X119122142Y-183587380D01*
X119026904Y-183730238D01*
X118931666Y-183825476D01*
X118836428Y-183873095D01*
G04 #@! TO.C,J4*
X145716666Y-136382380D02*
X145716666Y-137096666D01*
X145669047Y-137239523D01*
X145573809Y-137334761D01*
X145430952Y-137382380D01*
X145335714Y-137382380D01*
X146621428Y-136715714D02*
X146621428Y-137382380D01*
X146383333Y-136334761D02*
X146145238Y-137049047D01*
X146764285Y-137049047D01*
G04 #@! TO.C,D1*
X166710380Y-151106095D02*
X165710380Y-151106095D01*
X165710380Y-150868000D01*
X165758000Y-150725142D01*
X165853238Y-150629904D01*
X165948476Y-150582285D01*
X166138952Y-150534666D01*
X166281809Y-150534666D01*
X166472285Y-150582285D01*
X166567523Y-150629904D01*
X166662761Y-150725142D01*
X166710380Y-150868000D01*
X166710380Y-151106095D01*
X166710380Y-149582285D02*
X166710380Y-150153714D01*
X166710380Y-149868000D02*
X165710380Y-149868000D01*
X165853238Y-149963238D01*
X165948476Y-150058476D01*
X165996095Y-150153714D01*
G04 #@! TO.C,D2*
X168077380Y-151106095D02*
X167077380Y-151106095D01*
X167077380Y-150868000D01*
X167125000Y-150725142D01*
X167220238Y-150629904D01*
X167315476Y-150582285D01*
X167505952Y-150534666D01*
X167648809Y-150534666D01*
X167839285Y-150582285D01*
X167934523Y-150629904D01*
X168029761Y-150725142D01*
X168077380Y-150868000D01*
X168077380Y-151106095D01*
X167172619Y-150153714D02*
X167125000Y-150106095D01*
X167077380Y-150010857D01*
X167077380Y-149772761D01*
X167125000Y-149677523D01*
X167172619Y-149629904D01*
X167267857Y-149582285D01*
X167363095Y-149582285D01*
X167505952Y-149629904D01*
X168077380Y-150201333D01*
X168077380Y-149582285D01*
G04 #@! TO.C,J1*
X172321666Y-172402380D02*
X172321666Y-173116666D01*
X172274047Y-173259523D01*
X172178809Y-173354761D01*
X172035952Y-173402380D01*
X171940714Y-173402380D01*
X173321666Y-173402380D02*
X172750238Y-173402380D01*
X173035952Y-173402380D02*
X173035952Y-172402380D01*
X172940714Y-172545238D01*
X172845476Y-172640476D01*
X172750238Y-172688095D01*
G04 #@! TO.C,J2*
X162480666Y-157243980D02*
X162480666Y-157958266D01*
X162433047Y-158101123D01*
X162337809Y-158196361D01*
X162194952Y-158243980D01*
X162099714Y-158243980D01*
X162909238Y-157339219D02*
X162956857Y-157291600D01*
X163052095Y-157243980D01*
X163290190Y-157243980D01*
X163385428Y-157291600D01*
X163433047Y-157339219D01*
X163480666Y-157434457D01*
X163480666Y-157529695D01*
X163433047Y-157672552D01*
X162861619Y-158243980D01*
X163480666Y-158243980D01*
G04 #@! TO.C,J3*
X136842380Y-135461333D02*
X137556666Y-135461333D01*
X137699523Y-135508952D01*
X137794761Y-135604190D01*
X137842380Y-135747047D01*
X137842380Y-135842285D01*
X136842380Y-135080380D02*
X136842380Y-134461333D01*
X137223333Y-134794666D01*
X137223333Y-134651809D01*
X137270952Y-134556571D01*
X137318571Y-134508952D01*
X137413809Y-134461333D01*
X137651904Y-134461333D01*
X137747142Y-134508952D01*
X137794761Y-134556571D01*
X137842380Y-134651809D01*
X137842380Y-134937523D01*
X137794761Y-135032761D01*
X137747142Y-135080380D01*
G04 #@! TO.C,J5*
X161436666Y-183587380D02*
X161436666Y-184301666D01*
X161389047Y-184444523D01*
X161293809Y-184539761D01*
X161150952Y-184587380D01*
X161055714Y-184587380D01*
X162389047Y-183587380D02*
X161912857Y-183587380D01*
X161865238Y-184063571D01*
X161912857Y-184015952D01*
X162008095Y-183968333D01*
X162246190Y-183968333D01*
X162341428Y-184015952D01*
X162389047Y-184063571D01*
X162436666Y-184158809D01*
X162436666Y-184396904D01*
X162389047Y-184492142D01*
X162341428Y-184539761D01*
X162246190Y-184587380D01*
X162008095Y-184587380D01*
X161912857Y-184539761D01*
X161865238Y-184492142D01*
G04 #@! TO.C,J6*
X152546666Y-183587380D02*
X152546666Y-184301666D01*
X152499047Y-184444523D01*
X152403809Y-184539761D01*
X152260952Y-184587380D01*
X152165714Y-184587380D01*
X153451428Y-183587380D02*
X153260952Y-183587380D01*
X153165714Y-183635000D01*
X153118095Y-183682619D01*
X153022857Y-183825476D01*
X152975238Y-184015952D01*
X152975238Y-184396904D01*
X153022857Y-184492142D01*
X153070476Y-184539761D01*
X153165714Y-184587380D01*
X153356190Y-184587380D01*
X153451428Y-184539761D01*
X153499047Y-184492142D01*
X153546666Y-184396904D01*
X153546666Y-184158809D01*
X153499047Y-184063571D01*
X153451428Y-184015952D01*
X153356190Y-183968333D01*
X153165714Y-183968333D01*
X153070476Y-184015952D01*
X153022857Y-184063571D01*
X152975238Y-184158809D01*
G04 #@! TO.C,J8*
X135076666Y-183587380D02*
X135076666Y-184301666D01*
X135029047Y-184444523D01*
X134933809Y-184539761D01*
X134790952Y-184587380D01*
X134695714Y-184587380D01*
X135695714Y-184015952D02*
X135600476Y-183968333D01*
X135552857Y-183920714D01*
X135505238Y-183825476D01*
X135505238Y-183777857D01*
X135552857Y-183682619D01*
X135600476Y-183635000D01*
X135695714Y-183587380D01*
X135886190Y-183587380D01*
X135981428Y-183635000D01*
X136029047Y-183682619D01*
X136076666Y-183777857D01*
X136076666Y-183825476D01*
X136029047Y-183920714D01*
X135981428Y-183968333D01*
X135886190Y-184015952D01*
X135695714Y-184015952D01*
X135600476Y-184063571D01*
X135552857Y-184111190D01*
X135505238Y-184206428D01*
X135505238Y-184396904D01*
X135552857Y-184492142D01*
X135600476Y-184539761D01*
X135695714Y-184587380D01*
X135886190Y-184587380D01*
X135981428Y-184539761D01*
X136029047Y-184492142D01*
X136076666Y-184396904D01*
X136076666Y-184206428D01*
X136029047Y-184111190D01*
X135981428Y-184063571D01*
X135886190Y-184015952D01*
G04 #@! TO.C,J9*
X83042380Y-138915733D02*
X83756666Y-138915733D01*
X83899523Y-138963352D01*
X83994761Y-139058590D01*
X84042380Y-139201447D01*
X84042380Y-139296685D01*
X84042380Y-138391923D02*
X84042380Y-138201447D01*
X83994761Y-138106209D01*
X83947142Y-138058590D01*
X83804285Y-137963352D01*
X83613809Y-137915733D01*
X83232857Y-137915733D01*
X83137619Y-137963352D01*
X83090000Y-138010971D01*
X83042380Y-138106209D01*
X83042380Y-138296685D01*
X83090000Y-138391923D01*
X83137619Y-138439542D01*
X83232857Y-138487161D01*
X83470952Y-138487161D01*
X83566190Y-138439542D01*
X83613809Y-138391923D01*
X83661428Y-138296685D01*
X83661428Y-138106209D01*
X83613809Y-138010971D01*
X83566190Y-137963352D01*
X83470952Y-137915733D01*
G04 #@! TO.C,J12*
X108890476Y-183587380D02*
X108890476Y-184301666D01*
X108842857Y-184444523D01*
X108747619Y-184539761D01*
X108604761Y-184587380D01*
X108509523Y-184587380D01*
X109890476Y-184587380D02*
X109319047Y-184587380D01*
X109604761Y-184587380D02*
X109604761Y-183587380D01*
X109509523Y-183730238D01*
X109414285Y-183825476D01*
X109319047Y-183873095D01*
X110271428Y-183682619D02*
X110319047Y-183635000D01*
X110414285Y-183587380D01*
X110652380Y-183587380D01*
X110747619Y-183635000D01*
X110795238Y-183682619D01*
X110842857Y-183777857D01*
X110842857Y-183873095D01*
X110795238Y-184015952D01*
X110223809Y-184587380D01*
X110842857Y-184587380D01*
G04 #@! TO.C,J16*
X83042380Y-156257523D02*
X83756666Y-156257523D01*
X83899523Y-156305142D01*
X83994761Y-156400380D01*
X84042380Y-156543238D01*
X84042380Y-156638476D01*
X84042380Y-155257523D02*
X84042380Y-155828952D01*
X84042380Y-155543238D02*
X83042380Y-155543238D01*
X83185238Y-155638476D01*
X83280476Y-155733714D01*
X83328095Y-155828952D01*
X83042380Y-154400380D02*
X83042380Y-154590857D01*
X83090000Y-154686095D01*
X83137619Y-154733714D01*
X83280476Y-154828952D01*
X83470952Y-154876571D01*
X83851904Y-154876571D01*
X83947142Y-154828952D01*
X83994761Y-154781333D01*
X84042380Y-154686095D01*
X84042380Y-154495619D01*
X83994761Y-154400380D01*
X83947142Y-154352761D01*
X83851904Y-154305142D01*
X83613809Y-154305142D01*
X83518571Y-154352761D01*
X83470952Y-154400380D01*
X83423333Y-154495619D01*
X83423333Y-154686095D01*
X83470952Y-154781333D01*
X83518571Y-154828952D01*
X83613809Y-154876571D01*
G04 #@! TO.C,J17*
X136740780Y-159559523D02*
X137455066Y-159559523D01*
X137597923Y-159607142D01*
X137693161Y-159702380D01*
X137740780Y-159845238D01*
X137740780Y-159940476D01*
X137740780Y-158559523D02*
X137740780Y-159130952D01*
X137740780Y-158845238D02*
X136740780Y-158845238D01*
X136883638Y-158940476D01*
X136978876Y-159035714D01*
X137026495Y-159130952D01*
X136740780Y-158226190D02*
X136740780Y-157559523D01*
X137740780Y-157988095D01*
G04 #@! TO.C,J18*
X166068476Y-153459380D02*
X166068476Y-154173666D01*
X166020857Y-154316523D01*
X165925619Y-154411761D01*
X165782761Y-154459380D01*
X165687523Y-154459380D01*
X167068476Y-154459380D02*
X166497047Y-154459380D01*
X166782761Y-154459380D02*
X166782761Y-153459380D01*
X166687523Y-153602238D01*
X166592285Y-153697476D01*
X166497047Y-153745095D01*
X167639904Y-153887952D02*
X167544666Y-153840333D01*
X167497047Y-153792714D01*
X167449428Y-153697476D01*
X167449428Y-153649857D01*
X167497047Y-153554619D01*
X167544666Y-153507000D01*
X167639904Y-153459380D01*
X167830380Y-153459380D01*
X167925619Y-153507000D01*
X167973238Y-153554619D01*
X168020857Y-153649857D01*
X168020857Y-153697476D01*
X167973238Y-153792714D01*
X167925619Y-153840333D01*
X167830380Y-153887952D01*
X167639904Y-153887952D01*
X167544666Y-153935571D01*
X167497047Y-153983190D01*
X167449428Y-154078428D01*
X167449428Y-154268904D01*
X167497047Y-154364142D01*
X167544666Y-154411761D01*
X167639904Y-154459380D01*
X167830380Y-154459380D01*
X167925619Y-154411761D01*
X167973238Y-154364142D01*
X168020857Y-154268904D01*
X168020857Y-154078428D01*
X167973238Y-153983190D01*
X167925619Y-153935571D01*
X167830380Y-153887952D01*
G04 #@! TO.C,J19*
X170005476Y-157015380D02*
X170005476Y-157729666D01*
X169957857Y-157872523D01*
X169862619Y-157967761D01*
X169719761Y-158015380D01*
X169624523Y-158015380D01*
X171005476Y-158015380D02*
X170434047Y-158015380D01*
X170719761Y-158015380D02*
X170719761Y-157015380D01*
X170624523Y-157158238D01*
X170529285Y-157253476D01*
X170434047Y-157301095D01*
X171481666Y-158015380D02*
X171672142Y-158015380D01*
X171767380Y-157967761D01*
X171815000Y-157920142D01*
X171910238Y-157777285D01*
X171957857Y-157586809D01*
X171957857Y-157205857D01*
X171910238Y-157110619D01*
X171862619Y-157063000D01*
X171767380Y-157015380D01*
X171576904Y-157015380D01*
X171481666Y-157063000D01*
X171434047Y-157110619D01*
X171386428Y-157205857D01*
X171386428Y-157443952D01*
X171434047Y-157539190D01*
X171481666Y-157586809D01*
X171576904Y-157634428D01*
X171767380Y-157634428D01*
X171862619Y-157586809D01*
X171910238Y-157539190D01*
X171957857Y-157443952D01*
G04 #@! TO.C,Q1*
X164022619Y-176360238D02*
X163975000Y-176455476D01*
X163879761Y-176550714D01*
X163736904Y-176693571D01*
X163689285Y-176788809D01*
X163689285Y-176884047D01*
X163927380Y-176836428D02*
X163879761Y-176931666D01*
X163784523Y-177026904D01*
X163594047Y-177074523D01*
X163260714Y-177074523D01*
X163070238Y-177026904D01*
X162975000Y-176931666D01*
X162927380Y-176836428D01*
X162927380Y-176645952D01*
X162975000Y-176550714D01*
X163070238Y-176455476D01*
X163260714Y-176407857D01*
X163594047Y-176407857D01*
X163784523Y-176455476D01*
X163879761Y-176550714D01*
X163927380Y-176645952D01*
X163927380Y-176836428D01*
X163927380Y-175455476D02*
X163927380Y-176026904D01*
X163927380Y-175741190D02*
X162927380Y-175741190D01*
X163070238Y-175836428D01*
X163165476Y-175931666D01*
X163213095Y-176026904D01*
G04 #@! TO.C,Q2*
X155132619Y-176360238D02*
X155085000Y-176455476D01*
X154989761Y-176550714D01*
X154846904Y-176693571D01*
X154799285Y-176788809D01*
X154799285Y-176884047D01*
X155037380Y-176836428D02*
X154989761Y-176931666D01*
X154894523Y-177026904D01*
X154704047Y-177074523D01*
X154370714Y-177074523D01*
X154180238Y-177026904D01*
X154085000Y-176931666D01*
X154037380Y-176836428D01*
X154037380Y-176645952D01*
X154085000Y-176550714D01*
X154180238Y-176455476D01*
X154370714Y-176407857D01*
X154704047Y-176407857D01*
X154894523Y-176455476D01*
X154989761Y-176550714D01*
X155037380Y-176645952D01*
X155037380Y-176836428D01*
X154132619Y-176026904D02*
X154085000Y-175979285D01*
X154037380Y-175884047D01*
X154037380Y-175645952D01*
X154085000Y-175550714D01*
X154132619Y-175503095D01*
X154227857Y-175455476D01*
X154323095Y-175455476D01*
X154465952Y-175503095D01*
X155037380Y-176074523D01*
X155037380Y-175455476D01*
G04 #@! TO.C,Q3*
X146242619Y-176360238D02*
X146195000Y-176455476D01*
X146099761Y-176550714D01*
X145956904Y-176693571D01*
X145909285Y-176788809D01*
X145909285Y-176884047D01*
X146147380Y-176836428D02*
X146099761Y-176931666D01*
X146004523Y-177026904D01*
X145814047Y-177074523D01*
X145480714Y-177074523D01*
X145290238Y-177026904D01*
X145195000Y-176931666D01*
X145147380Y-176836428D01*
X145147380Y-176645952D01*
X145195000Y-176550714D01*
X145290238Y-176455476D01*
X145480714Y-176407857D01*
X145814047Y-176407857D01*
X146004523Y-176455476D01*
X146099761Y-176550714D01*
X146147380Y-176645952D01*
X146147380Y-176836428D01*
X145147380Y-176074523D02*
X145147380Y-175455476D01*
X145528333Y-175788809D01*
X145528333Y-175645952D01*
X145575952Y-175550714D01*
X145623571Y-175503095D01*
X145718809Y-175455476D01*
X145956904Y-175455476D01*
X146052142Y-175503095D01*
X146099761Y-175550714D01*
X146147380Y-175645952D01*
X146147380Y-175931666D01*
X146099761Y-176026904D01*
X146052142Y-176074523D01*
G04 #@! TO.C,Q4*
X137987619Y-176360238D02*
X137940000Y-176455476D01*
X137844761Y-176550714D01*
X137701904Y-176693571D01*
X137654285Y-176788809D01*
X137654285Y-176884047D01*
X137892380Y-176836428D02*
X137844761Y-176931666D01*
X137749523Y-177026904D01*
X137559047Y-177074523D01*
X137225714Y-177074523D01*
X137035238Y-177026904D01*
X136940000Y-176931666D01*
X136892380Y-176836428D01*
X136892380Y-176645952D01*
X136940000Y-176550714D01*
X137035238Y-176455476D01*
X137225714Y-176407857D01*
X137559047Y-176407857D01*
X137749523Y-176455476D01*
X137844761Y-176550714D01*
X137892380Y-176645952D01*
X137892380Y-176836428D01*
X137225714Y-175550714D02*
X137892380Y-175550714D01*
X136844761Y-175788809D02*
X137559047Y-176026904D01*
X137559047Y-175407857D01*
G04 #@! TO.C,Q5*
X129097619Y-176360238D02*
X129050000Y-176455476D01*
X128954761Y-176550714D01*
X128811904Y-176693571D01*
X128764285Y-176788809D01*
X128764285Y-176884047D01*
X129002380Y-176836428D02*
X128954761Y-176931666D01*
X128859523Y-177026904D01*
X128669047Y-177074523D01*
X128335714Y-177074523D01*
X128145238Y-177026904D01*
X128050000Y-176931666D01*
X128002380Y-176836428D01*
X128002380Y-176645952D01*
X128050000Y-176550714D01*
X128145238Y-176455476D01*
X128335714Y-176407857D01*
X128669047Y-176407857D01*
X128859523Y-176455476D01*
X128954761Y-176550714D01*
X129002380Y-176645952D01*
X129002380Y-176836428D01*
X128002380Y-175503095D02*
X128002380Y-175979285D01*
X128478571Y-176026904D01*
X128430952Y-175979285D01*
X128383333Y-175884047D01*
X128383333Y-175645952D01*
X128430952Y-175550714D01*
X128478571Y-175503095D01*
X128573809Y-175455476D01*
X128811904Y-175455476D01*
X128907142Y-175503095D01*
X128954761Y-175550714D01*
X129002380Y-175645952D01*
X129002380Y-175884047D01*
X128954761Y-175979285D01*
X128907142Y-176026904D01*
G04 #@! TO.C,Q6*
X119572619Y-176360238D02*
X119525000Y-176455476D01*
X119429761Y-176550714D01*
X119286904Y-176693571D01*
X119239285Y-176788809D01*
X119239285Y-176884047D01*
X119477380Y-176836428D02*
X119429761Y-176931666D01*
X119334523Y-177026904D01*
X119144047Y-177074523D01*
X118810714Y-177074523D01*
X118620238Y-177026904D01*
X118525000Y-176931666D01*
X118477380Y-176836428D01*
X118477380Y-176645952D01*
X118525000Y-176550714D01*
X118620238Y-176455476D01*
X118810714Y-176407857D01*
X119144047Y-176407857D01*
X119334523Y-176455476D01*
X119429761Y-176550714D01*
X119477380Y-176645952D01*
X119477380Y-176836428D01*
X118477380Y-175550714D02*
X118477380Y-175741190D01*
X118525000Y-175836428D01*
X118572619Y-175884047D01*
X118715476Y-175979285D01*
X118905952Y-176026904D01*
X119286904Y-176026904D01*
X119382142Y-175979285D01*
X119429761Y-175931666D01*
X119477380Y-175836428D01*
X119477380Y-175645952D01*
X119429761Y-175550714D01*
X119382142Y-175503095D01*
X119286904Y-175455476D01*
X119048809Y-175455476D01*
X118953571Y-175503095D01*
X118905952Y-175550714D01*
X118858333Y-175645952D01*
X118858333Y-175836428D01*
X118905952Y-175931666D01*
X118953571Y-175979285D01*
X119048809Y-176026904D01*
G04 #@! TO.C,Q7*
X111952619Y-176360238D02*
X111905000Y-176455476D01*
X111809761Y-176550714D01*
X111666904Y-176693571D01*
X111619285Y-176788809D01*
X111619285Y-176884047D01*
X111857380Y-176836428D02*
X111809761Y-176931666D01*
X111714523Y-177026904D01*
X111524047Y-177074523D01*
X111190714Y-177074523D01*
X111000238Y-177026904D01*
X110905000Y-176931666D01*
X110857380Y-176836428D01*
X110857380Y-176645952D01*
X110905000Y-176550714D01*
X111000238Y-176455476D01*
X111190714Y-176407857D01*
X111524047Y-176407857D01*
X111714523Y-176455476D01*
X111809761Y-176550714D01*
X111857380Y-176645952D01*
X111857380Y-176836428D01*
X110857380Y-176074523D02*
X110857380Y-175407857D01*
X111857380Y-175836428D01*
G04 #@! TO.C,Q8*
X103697619Y-176360238D02*
X103650000Y-176455476D01*
X103554761Y-176550714D01*
X103411904Y-176693571D01*
X103364285Y-176788809D01*
X103364285Y-176884047D01*
X103602380Y-176836428D02*
X103554761Y-176931666D01*
X103459523Y-177026904D01*
X103269047Y-177074523D01*
X102935714Y-177074523D01*
X102745238Y-177026904D01*
X102650000Y-176931666D01*
X102602380Y-176836428D01*
X102602380Y-176645952D01*
X102650000Y-176550714D01*
X102745238Y-176455476D01*
X102935714Y-176407857D01*
X103269047Y-176407857D01*
X103459523Y-176455476D01*
X103554761Y-176550714D01*
X103602380Y-176645952D01*
X103602380Y-176836428D01*
X103030952Y-175836428D02*
X102983333Y-175931666D01*
X102935714Y-175979285D01*
X102840476Y-176026904D01*
X102792857Y-176026904D01*
X102697619Y-175979285D01*
X102650000Y-175931666D01*
X102602380Y-175836428D01*
X102602380Y-175645952D01*
X102650000Y-175550714D01*
X102697619Y-175503095D01*
X102792857Y-175455476D01*
X102840476Y-175455476D01*
X102935714Y-175503095D01*
X102983333Y-175550714D01*
X103030952Y-175645952D01*
X103030952Y-175836428D01*
X103078571Y-175931666D01*
X103126190Y-175979285D01*
X103221428Y-176026904D01*
X103411904Y-176026904D01*
X103507142Y-175979285D01*
X103554761Y-175931666D01*
X103602380Y-175836428D01*
X103602380Y-175645952D01*
X103554761Y-175550714D01*
X103507142Y-175503095D01*
X103411904Y-175455476D01*
X103221428Y-175455476D01*
X103126190Y-175503095D01*
X103078571Y-175550714D01*
X103030952Y-175645952D01*
G04 #@! TO.C,Q9*
X94807619Y-176360238D02*
X94760000Y-176455476D01*
X94664761Y-176550714D01*
X94521904Y-176693571D01*
X94474285Y-176788809D01*
X94474285Y-176884047D01*
X94712380Y-176836428D02*
X94664761Y-176931666D01*
X94569523Y-177026904D01*
X94379047Y-177074523D01*
X94045714Y-177074523D01*
X93855238Y-177026904D01*
X93760000Y-176931666D01*
X93712380Y-176836428D01*
X93712380Y-176645952D01*
X93760000Y-176550714D01*
X93855238Y-176455476D01*
X94045714Y-176407857D01*
X94379047Y-176407857D01*
X94569523Y-176455476D01*
X94664761Y-176550714D01*
X94712380Y-176645952D01*
X94712380Y-176836428D01*
X94712380Y-175931666D02*
X94712380Y-175741190D01*
X94664761Y-175645952D01*
X94617142Y-175598333D01*
X94474285Y-175503095D01*
X94283809Y-175455476D01*
X93902857Y-175455476D01*
X93807619Y-175503095D01*
X93760000Y-175550714D01*
X93712380Y-175645952D01*
X93712380Y-175836428D01*
X93760000Y-175931666D01*
X93807619Y-175979285D01*
X93902857Y-176026904D01*
X94140952Y-176026904D01*
X94236190Y-175979285D01*
X94283809Y-175931666D01*
X94331428Y-175836428D01*
X94331428Y-175645952D01*
X94283809Y-175550714D01*
X94236190Y-175503095D01*
X94140952Y-175455476D01*
G04 #@! TO.C,Q10*
X85282619Y-176836428D02*
X85235000Y-176931666D01*
X85139761Y-177026904D01*
X84996904Y-177169761D01*
X84949285Y-177265000D01*
X84949285Y-177360238D01*
X85187380Y-177312619D02*
X85139761Y-177407857D01*
X85044523Y-177503095D01*
X84854047Y-177550714D01*
X84520714Y-177550714D01*
X84330238Y-177503095D01*
X84235000Y-177407857D01*
X84187380Y-177312619D01*
X84187380Y-177122142D01*
X84235000Y-177026904D01*
X84330238Y-176931666D01*
X84520714Y-176884047D01*
X84854047Y-176884047D01*
X85044523Y-176931666D01*
X85139761Y-177026904D01*
X85187380Y-177122142D01*
X85187380Y-177312619D01*
X85187380Y-175931666D02*
X85187380Y-176503095D01*
X85187380Y-176217380D02*
X84187380Y-176217380D01*
X84330238Y-176312619D01*
X84425476Y-176407857D01*
X84473095Y-176503095D01*
X84187380Y-175312619D02*
X84187380Y-175217380D01*
X84235000Y-175122142D01*
X84282619Y-175074523D01*
X84377857Y-175026904D01*
X84568333Y-174979285D01*
X84806428Y-174979285D01*
X84996904Y-175026904D01*
X85092142Y-175074523D01*
X85139761Y-175122142D01*
X85187380Y-175217380D01*
X85187380Y-175312619D01*
X85139761Y-175407857D01*
X85092142Y-175455476D01*
X84996904Y-175503095D01*
X84806428Y-175550714D01*
X84568333Y-175550714D01*
X84377857Y-175503095D01*
X84282619Y-175455476D01*
X84235000Y-175407857D01*
X84187380Y-175312619D01*
G04 #@! TO.C,R1*
X166710380Y-145073666D02*
X166234190Y-145407000D01*
X166710380Y-145645095D02*
X165710380Y-145645095D01*
X165710380Y-145264142D01*
X165758000Y-145168904D01*
X165805619Y-145121285D01*
X165900857Y-145073666D01*
X166043714Y-145073666D01*
X166138952Y-145121285D01*
X166186571Y-145168904D01*
X166234190Y-145264142D01*
X166234190Y-145645095D01*
X166710380Y-144121285D02*
X166710380Y-144692714D01*
X166710380Y-144407000D02*
X165710380Y-144407000D01*
X165853238Y-144502238D01*
X165948476Y-144597476D01*
X165996095Y-144692714D01*
G04 #@! TO.C,R2*
X171917380Y-145200666D02*
X171441190Y-145534000D01*
X171917380Y-145772095D02*
X170917380Y-145772095D01*
X170917380Y-145391142D01*
X170965000Y-145295904D01*
X171012619Y-145248285D01*
X171107857Y-145200666D01*
X171250714Y-145200666D01*
X171345952Y-145248285D01*
X171393571Y-145295904D01*
X171441190Y-145391142D01*
X171441190Y-145772095D01*
X171012619Y-144819714D02*
X170965000Y-144772095D01*
X170917380Y-144676857D01*
X170917380Y-144438761D01*
X170965000Y-144343523D01*
X171012619Y-144295904D01*
X171107857Y-144248285D01*
X171203095Y-144248285D01*
X171345952Y-144295904D01*
X171917380Y-144867333D01*
X171917380Y-144248285D01*
G04 #@! TO.C,R3*
X159441380Y-135294666D02*
X158965190Y-135628000D01*
X159441380Y-135866095D02*
X158441380Y-135866095D01*
X158441380Y-135485142D01*
X158489000Y-135389904D01*
X158536619Y-135342285D01*
X158631857Y-135294666D01*
X158774714Y-135294666D01*
X158869952Y-135342285D01*
X158917571Y-135389904D01*
X158965190Y-135485142D01*
X158965190Y-135866095D01*
X158441380Y-134961333D02*
X158441380Y-134342285D01*
X158822333Y-134675619D01*
X158822333Y-134532761D01*
X158869952Y-134437523D01*
X158917571Y-134389904D01*
X159012809Y-134342285D01*
X159250904Y-134342285D01*
X159346142Y-134389904D01*
X159393761Y-134437523D01*
X159441380Y-134532761D01*
X159441380Y-134818476D01*
X159393761Y-134913714D01*
X159346142Y-134961333D01*
G04 #@! TO.C,R4*
X130642380Y-163996666D02*
X130166190Y-164330000D01*
X130642380Y-164568095D02*
X129642380Y-164568095D01*
X129642380Y-164187142D01*
X129690000Y-164091904D01*
X129737619Y-164044285D01*
X129832857Y-163996666D01*
X129975714Y-163996666D01*
X130070952Y-164044285D01*
X130118571Y-164091904D01*
X130166190Y-164187142D01*
X130166190Y-164568095D01*
X129975714Y-163139523D02*
X130642380Y-163139523D01*
X129594761Y-163377619D02*
X130309047Y-163615714D01*
X130309047Y-162996666D01*
G04 #@! TO.C,R5*
X125562380Y-163996666D02*
X125086190Y-164330000D01*
X125562380Y-164568095D02*
X124562380Y-164568095D01*
X124562380Y-164187142D01*
X124610000Y-164091904D01*
X124657619Y-164044285D01*
X124752857Y-163996666D01*
X124895714Y-163996666D01*
X124990952Y-164044285D01*
X125038571Y-164091904D01*
X125086190Y-164187142D01*
X125086190Y-164568095D01*
X124562380Y-163091904D02*
X124562380Y-163568095D01*
X125038571Y-163615714D01*
X124990952Y-163568095D01*
X124943333Y-163472857D01*
X124943333Y-163234761D01*
X124990952Y-163139523D01*
X125038571Y-163091904D01*
X125133809Y-163044285D01*
X125371904Y-163044285D01*
X125467142Y-163091904D01*
X125514761Y-163139523D01*
X125562380Y-163234761D01*
X125562380Y-163472857D01*
X125514761Y-163568095D01*
X125467142Y-163615714D01*
G04 #@! TO.C,R6*
X120482380Y-163996666D02*
X120006190Y-164330000D01*
X120482380Y-164568095D02*
X119482380Y-164568095D01*
X119482380Y-164187142D01*
X119530000Y-164091904D01*
X119577619Y-164044285D01*
X119672857Y-163996666D01*
X119815714Y-163996666D01*
X119910952Y-164044285D01*
X119958571Y-164091904D01*
X120006190Y-164187142D01*
X120006190Y-164568095D01*
X119482380Y-163139523D02*
X119482380Y-163330000D01*
X119530000Y-163425238D01*
X119577619Y-163472857D01*
X119720476Y-163568095D01*
X119910952Y-163615714D01*
X120291904Y-163615714D01*
X120387142Y-163568095D01*
X120434761Y-163520476D01*
X120482380Y-163425238D01*
X120482380Y-163234761D01*
X120434761Y-163139523D01*
X120387142Y-163091904D01*
X120291904Y-163044285D01*
X120053809Y-163044285D01*
X119958571Y-163091904D01*
X119910952Y-163139523D01*
X119863333Y-163234761D01*
X119863333Y-163425238D01*
X119910952Y-163520476D01*
X119958571Y-163568095D01*
X120053809Y-163615714D01*
G04 #@! TO.C,R7*
X115402380Y-163996666D02*
X114926190Y-164330000D01*
X115402380Y-164568095D02*
X114402380Y-164568095D01*
X114402380Y-164187142D01*
X114450000Y-164091904D01*
X114497619Y-164044285D01*
X114592857Y-163996666D01*
X114735714Y-163996666D01*
X114830952Y-164044285D01*
X114878571Y-164091904D01*
X114926190Y-164187142D01*
X114926190Y-164568095D01*
X114402380Y-163663333D02*
X114402380Y-162996666D01*
X115402380Y-163425238D01*
G04 #@! TO.C,R8*
X110322380Y-163996666D02*
X109846190Y-164330000D01*
X110322380Y-164568095D02*
X109322380Y-164568095D01*
X109322380Y-164187142D01*
X109370000Y-164091904D01*
X109417619Y-164044285D01*
X109512857Y-163996666D01*
X109655714Y-163996666D01*
X109750952Y-164044285D01*
X109798571Y-164091904D01*
X109846190Y-164187142D01*
X109846190Y-164568095D01*
X109750952Y-163425238D02*
X109703333Y-163520476D01*
X109655714Y-163568095D01*
X109560476Y-163615714D01*
X109512857Y-163615714D01*
X109417619Y-163568095D01*
X109370000Y-163520476D01*
X109322380Y-163425238D01*
X109322380Y-163234761D01*
X109370000Y-163139523D01*
X109417619Y-163091904D01*
X109512857Y-163044285D01*
X109560476Y-163044285D01*
X109655714Y-163091904D01*
X109703333Y-163139523D01*
X109750952Y-163234761D01*
X109750952Y-163425238D01*
X109798571Y-163520476D01*
X109846190Y-163568095D01*
X109941428Y-163615714D01*
X110131904Y-163615714D01*
X110227142Y-163568095D01*
X110274761Y-163520476D01*
X110322380Y-163425238D01*
X110322380Y-163234761D01*
X110274761Y-163139523D01*
X110227142Y-163091904D01*
X110131904Y-163044285D01*
X109941428Y-163044285D01*
X109846190Y-163091904D01*
X109798571Y-163139523D01*
X109750952Y-163234761D01*
G04 #@! TO.C,R9*
X105242380Y-163996666D02*
X104766190Y-164330000D01*
X105242380Y-164568095D02*
X104242380Y-164568095D01*
X104242380Y-164187142D01*
X104290000Y-164091904D01*
X104337619Y-164044285D01*
X104432857Y-163996666D01*
X104575714Y-163996666D01*
X104670952Y-164044285D01*
X104718571Y-164091904D01*
X104766190Y-164187142D01*
X104766190Y-164568095D01*
X105242380Y-163520476D02*
X105242380Y-163330000D01*
X105194761Y-163234761D01*
X105147142Y-163187142D01*
X105004285Y-163091904D01*
X104813809Y-163044285D01*
X104432857Y-163044285D01*
X104337619Y-163091904D01*
X104290000Y-163139523D01*
X104242380Y-163234761D01*
X104242380Y-163425238D01*
X104290000Y-163520476D01*
X104337619Y-163568095D01*
X104432857Y-163615714D01*
X104670952Y-163615714D01*
X104766190Y-163568095D01*
X104813809Y-163520476D01*
X104861428Y-163425238D01*
X104861428Y-163234761D01*
X104813809Y-163139523D01*
X104766190Y-163091904D01*
X104670952Y-163044285D01*
G04 #@! TO.C,R10*
X100162380Y-164472857D02*
X99686190Y-164806190D01*
X100162380Y-165044285D02*
X99162380Y-165044285D01*
X99162380Y-164663333D01*
X99210000Y-164568095D01*
X99257619Y-164520476D01*
X99352857Y-164472857D01*
X99495714Y-164472857D01*
X99590952Y-164520476D01*
X99638571Y-164568095D01*
X99686190Y-164663333D01*
X99686190Y-165044285D01*
X100162380Y-163520476D02*
X100162380Y-164091904D01*
X100162380Y-163806190D02*
X99162380Y-163806190D01*
X99305238Y-163901428D01*
X99400476Y-163996666D01*
X99448095Y-164091904D01*
X99162380Y-162901428D02*
X99162380Y-162806190D01*
X99210000Y-162710952D01*
X99257619Y-162663333D01*
X99352857Y-162615714D01*
X99543333Y-162568095D01*
X99781428Y-162568095D01*
X99971904Y-162615714D01*
X100067142Y-162663333D01*
X100114761Y-162710952D01*
X100162380Y-162806190D01*
X100162380Y-162901428D01*
X100114761Y-162996666D01*
X100067142Y-163044285D01*
X99971904Y-163091904D01*
X99781428Y-163139523D01*
X99543333Y-163139523D01*
X99352857Y-163091904D01*
X99257619Y-163044285D01*
X99210000Y-162996666D01*
X99162380Y-162901428D01*
G04 #@! TO.C,R11*
X95082380Y-164472857D02*
X94606190Y-164806190D01*
X95082380Y-165044285D02*
X94082380Y-165044285D01*
X94082380Y-164663333D01*
X94130000Y-164568095D01*
X94177619Y-164520476D01*
X94272857Y-164472857D01*
X94415714Y-164472857D01*
X94510952Y-164520476D01*
X94558571Y-164568095D01*
X94606190Y-164663333D01*
X94606190Y-165044285D01*
X95082380Y-163520476D02*
X95082380Y-164091904D01*
X95082380Y-163806190D02*
X94082380Y-163806190D01*
X94225238Y-163901428D01*
X94320476Y-163996666D01*
X94368095Y-164091904D01*
X95082380Y-162568095D02*
X95082380Y-163139523D01*
X95082380Y-162853809D02*
X94082380Y-162853809D01*
X94225238Y-162949047D01*
X94320476Y-163044285D01*
X94368095Y-163139523D01*
G04 #@! TO.C,R12*
X90002380Y-164472857D02*
X89526190Y-164806190D01*
X90002380Y-165044285D02*
X89002380Y-165044285D01*
X89002380Y-164663333D01*
X89050000Y-164568095D01*
X89097619Y-164520476D01*
X89192857Y-164472857D01*
X89335714Y-164472857D01*
X89430952Y-164520476D01*
X89478571Y-164568095D01*
X89526190Y-164663333D01*
X89526190Y-165044285D01*
X90002380Y-163520476D02*
X90002380Y-164091904D01*
X90002380Y-163806190D02*
X89002380Y-163806190D01*
X89145238Y-163901428D01*
X89240476Y-163996666D01*
X89288095Y-164091904D01*
X89097619Y-163139523D02*
X89050000Y-163091904D01*
X89002380Y-162996666D01*
X89002380Y-162758571D01*
X89050000Y-162663333D01*
X89097619Y-162615714D01*
X89192857Y-162568095D01*
X89288095Y-162568095D01*
X89430952Y-162615714D01*
X90002380Y-163187142D01*
X90002380Y-162568095D01*
G04 #@! TO.C,R13*
X84922380Y-164472857D02*
X84446190Y-164806190D01*
X84922380Y-165044285D02*
X83922380Y-165044285D01*
X83922380Y-164663333D01*
X83970000Y-164568095D01*
X84017619Y-164520476D01*
X84112857Y-164472857D01*
X84255714Y-164472857D01*
X84350952Y-164520476D01*
X84398571Y-164568095D01*
X84446190Y-164663333D01*
X84446190Y-165044285D01*
X84922380Y-163520476D02*
X84922380Y-164091904D01*
X84922380Y-163806190D02*
X83922380Y-163806190D01*
X84065238Y-163901428D01*
X84160476Y-163996666D01*
X84208095Y-164091904D01*
X83922380Y-163187142D02*
X83922380Y-162568095D01*
X84303333Y-162901428D01*
X84303333Y-162758571D01*
X84350952Y-162663333D01*
X84398571Y-162615714D01*
X84493809Y-162568095D01*
X84731904Y-162568095D01*
X84827142Y-162615714D01*
X84874761Y-162663333D01*
X84922380Y-162758571D01*
X84922380Y-163044285D01*
X84874761Y-163139523D01*
X84827142Y-163187142D01*
G04 #@! TO.C,SW1*
X162394761Y-138366333D02*
X162442380Y-138223476D01*
X162442380Y-137985380D01*
X162394761Y-137890142D01*
X162347142Y-137842523D01*
X162251904Y-137794904D01*
X162156666Y-137794904D01*
X162061428Y-137842523D01*
X162013809Y-137890142D01*
X161966190Y-137985380D01*
X161918571Y-138175857D01*
X161870952Y-138271095D01*
X161823333Y-138318714D01*
X161728095Y-138366333D01*
X161632857Y-138366333D01*
X161537619Y-138318714D01*
X161490000Y-138271095D01*
X161442380Y-138175857D01*
X161442380Y-137937761D01*
X161490000Y-137794904D01*
X161442380Y-137461571D02*
X162442380Y-137223476D01*
X161728095Y-137033000D01*
X162442380Y-136842523D01*
X161442380Y-136604428D01*
X162442380Y-135699666D02*
X162442380Y-136271095D01*
X162442380Y-135985380D02*
X161442380Y-135985380D01*
X161585238Y-136080619D01*
X161680476Y-136175857D01*
X161728095Y-136271095D01*
G04 #@! TO.C,J20*
X145240476Y-153967380D02*
X145240476Y-154681666D01*
X145192857Y-154824523D01*
X145097619Y-154919761D01*
X144954761Y-154967380D01*
X144859523Y-154967380D01*
X145669047Y-154062619D02*
X145716666Y-154015000D01*
X145811904Y-153967380D01*
X146050000Y-153967380D01*
X146145238Y-154015000D01*
X146192857Y-154062619D01*
X146240476Y-154157857D01*
X146240476Y-154253095D01*
X146192857Y-154395952D01*
X145621428Y-154967380D01*
X146240476Y-154967380D01*
X146859523Y-153967380D02*
X146954761Y-153967380D01*
X147050000Y-154015000D01*
X147097619Y-154062619D01*
X147145238Y-154157857D01*
X147192857Y-154348333D01*
X147192857Y-154586428D01*
X147145238Y-154776904D01*
X147097619Y-154872142D01*
X147050000Y-154919761D01*
X146954761Y-154967380D01*
X146859523Y-154967380D01*
X146764285Y-154919761D01*
X146716666Y-154872142D01*
X146669047Y-154776904D01*
X146621428Y-154586428D01*
X146621428Y-154348333D01*
X146669047Y-154157857D01*
X146716666Y-154062619D01*
X146764285Y-154015000D01*
X146859523Y-153967380D01*
G04 #@! TD*
M02*
