G04 #@! TF.GenerationSoftware,KiCad,Pcbnew,5.0.2-bee76a0~70~ubuntu18.04.1*
G04 #@! TF.CreationDate,2018-12-21T16:27:28-06:00*
G04 #@! TF.ProjectId,pcb,7063622e-6b69-4636-9164-5f7063625858,rev?*
G04 #@! TF.SameCoordinates,Original*
G04 #@! TF.FileFunction,Copper,L1,Top*
G04 #@! TF.FilePolarity,Positive*
%FSLAX46Y46*%
G04 Gerber Fmt 4.6, Leading zero omitted, Abs format (unit mm)*
G04 Created by KiCad (PCBNEW 5.0.2-bee76a0~70~ubuntu18.04.1) date Fri 21 Dec 2018 04:27:28 PM CST*
%MOMM*%
%LPD*%
G01*
G04 APERTURE LIST*
G04 #@! TA.AperFunction,NonConductor*
%ADD10C,0.300000*%
G04 #@! TD*
G04 #@! TA.AperFunction,ComponentPad*
%ADD11C,2.400000*%
G04 #@! TD*
G04 #@! TA.AperFunction,ComponentPad*
%ADD12R,2.400000X2.400000*%
G04 #@! TD*
G04 #@! TA.AperFunction,ComponentPad*
%ADD13R,1.700000X1.700000*%
G04 #@! TD*
G04 #@! TA.AperFunction,ComponentPad*
%ADD14O,1.700000X1.700000*%
G04 #@! TD*
G04 #@! TA.AperFunction,ComponentPad*
%ADD15C,1.400000*%
G04 #@! TD*
G04 #@! TA.AperFunction,ComponentPad*
%ADD16O,1.400000X1.400000*%
G04 #@! TD*
G04 #@! TA.AperFunction,ComponentPad*
%ADD17R,4.500000X2.500000*%
G04 #@! TD*
G04 #@! TA.AperFunction,ComponentPad*
%ADD18O,4.500000X2.500000*%
G04 #@! TD*
G04 #@! TA.AperFunction,ComponentPad*
%ADD19R,1.600000X1.600000*%
G04 #@! TD*
G04 #@! TA.AperFunction,ComponentPad*
%ADD20O,1.600000X1.600000*%
G04 #@! TD*
G04 #@! TA.AperFunction,Conductor*
%ADD21C,0.250000*%
G04 #@! TD*
G04 APERTURE END LIST*
D10*
X148931428Y-140378571D02*
X148074285Y-140378571D01*
X148502857Y-140378571D02*
X148502857Y-138878571D01*
X148360000Y-139092857D01*
X148217142Y-139235714D01*
X148074285Y-139307142D01*
X149502857Y-139021428D02*
X149574285Y-138950000D01*
X149717142Y-138878571D01*
X150074285Y-138878571D01*
X150217142Y-138950000D01*
X150288571Y-139021428D01*
X150360000Y-139164285D01*
X150360000Y-139307142D01*
X150288571Y-139521428D01*
X149431428Y-140378571D01*
X150360000Y-140378571D01*
X150788571Y-138878571D02*
X151288571Y-140378571D01*
X151788571Y-138878571D01*
X149137857Y-143958571D02*
X148423571Y-143958571D01*
X148352142Y-144672857D01*
X148423571Y-144601428D01*
X148566428Y-144530000D01*
X148923571Y-144530000D01*
X149066428Y-144601428D01*
X149137857Y-144672857D01*
X149209285Y-144815714D01*
X149209285Y-145172857D01*
X149137857Y-145315714D01*
X149066428Y-145387142D01*
X148923571Y-145458571D01*
X148566428Y-145458571D01*
X148423571Y-145387142D01*
X148352142Y-145315714D01*
X149852142Y-145315714D02*
X149923571Y-145387142D01*
X149852142Y-145458571D01*
X149780714Y-145387142D01*
X149852142Y-145315714D01*
X149852142Y-145458571D01*
X151280714Y-143958571D02*
X150566428Y-143958571D01*
X150495000Y-144672857D01*
X150566428Y-144601428D01*
X150709285Y-144530000D01*
X151066428Y-144530000D01*
X151209285Y-144601428D01*
X151280714Y-144672857D01*
X151352142Y-144815714D01*
X151352142Y-145172857D01*
X151280714Y-145315714D01*
X151209285Y-145387142D01*
X151066428Y-145458571D01*
X150709285Y-145458571D01*
X150566428Y-145387142D01*
X150495000Y-145315714D01*
X151780714Y-143958571D02*
X152280714Y-145458571D01*
X152780714Y-143958571D01*
X148280714Y-149038571D02*
X149209285Y-149038571D01*
X148709285Y-149610000D01*
X148923571Y-149610000D01*
X149066428Y-149681428D01*
X149137857Y-149752857D01*
X149209285Y-149895714D01*
X149209285Y-150252857D01*
X149137857Y-150395714D01*
X149066428Y-150467142D01*
X148923571Y-150538571D01*
X148495000Y-150538571D01*
X148352142Y-150467142D01*
X148280714Y-150395714D01*
X149852142Y-150395714D02*
X149923571Y-150467142D01*
X149852142Y-150538571D01*
X149780714Y-150467142D01*
X149852142Y-150395714D01*
X149852142Y-150538571D01*
X150423571Y-149038571D02*
X151352142Y-149038571D01*
X150852142Y-149610000D01*
X151066428Y-149610000D01*
X151209285Y-149681428D01*
X151280714Y-149752857D01*
X151352142Y-149895714D01*
X151352142Y-150252857D01*
X151280714Y-150395714D01*
X151209285Y-150467142D01*
X151066428Y-150538571D01*
X150637857Y-150538571D01*
X150495000Y-150467142D01*
X150423571Y-150395714D01*
X151780714Y-149038571D02*
X152280714Y-150538571D01*
X152780714Y-149038571D01*
D11*
G04 #@! TO.P,J14,2*
G04 #@! TO.N,Net-(D1-Pad1)*
X94330001Y-188610001D03*
D12*
G04 #@! TO.P,J14,1*
G04 #@! TO.N,Net-(J14-Pad1)*
X90830001Y-188610001D03*
G04 #@! TD*
G04 #@! TO.P,J15,1*
G04 #@! TO.N,Net-(J15-Pad1)*
X81915000Y-188595000D03*
D11*
G04 #@! TO.P,J15,2*
G04 #@! TO.N,Net-(D1-Pad1)*
X85415000Y-188595000D03*
G04 #@! TD*
G04 #@! TO.P,J7,2*
G04 #@! TO.N,Net-(D1-Pad1)*
X145740000Y-188595000D03*
D12*
G04 #@! TO.P,J7,1*
G04 #@! TO.N,Net-(J7-Pad1)*
X142240000Y-188595000D03*
G04 #@! TD*
D11*
G04 #@! TO.P,J10,2*
G04 #@! TO.N,Net-(D1-Pad1)*
X128595000Y-188595000D03*
D12*
G04 #@! TO.P,J10,1*
G04 #@! TO.N,Net-(J10-Pad1)*
X125095000Y-188595000D03*
G04 #@! TD*
G04 #@! TO.P,J13,1*
G04 #@! TO.N,Net-(J13-Pad1)*
X100005000Y-188595000D03*
D11*
G04 #@! TO.P,J13,2*
G04 #@! TO.N,Net-(D1-Pad1)*
X103505000Y-188595000D03*
G04 #@! TD*
D12*
G04 #@! TO.P,J11,1*
G04 #@! TO.N,Net-(J11-Pad1)*
X116515000Y-188595000D03*
D11*
G04 #@! TO.P,J11,2*
G04 #@! TO.N,Net-(D1-Pad1)*
X120015000Y-188595000D03*
G04 #@! TD*
D13*
G04 #@! TO.P,J4,1*
G04 #@! TO.N,Net-(D1-Pad1)*
X146050000Y-139700000D03*
D14*
G04 #@! TO.P,J4,2*
X146050000Y-142240000D03*
G04 #@! TO.P,J4,3*
G04 #@! TO.N,/5V*
X146050000Y-144780000D03*
G04 #@! TO.P,J4,4*
X146050000Y-147320000D03*
G04 #@! TO.P,J4,5*
G04 #@! TO.N,/3.3V*
X146050000Y-149860000D03*
G04 #@! TO.P,J4,6*
X146050000Y-152400000D03*
G04 #@! TD*
D15*
G04 #@! TO.P,D1,1*
G04 #@! TO.N,Net-(D1-Pad1)*
X164338000Y-149098000D03*
D16*
G04 #@! TO.P,D1,2*
G04 #@! TO.N,Net-(D1-Pad2)*
X164338000Y-151638000D03*
G04 #@! TD*
D15*
G04 #@! TO.P,D2,1*
G04 #@! TO.N,Net-(D2-Pad1)*
X169545000Y-151638000D03*
D16*
G04 #@! TO.P,D2,2*
G04 #@! TO.N,/GND*
X169545000Y-149098000D03*
G04 #@! TD*
D13*
G04 #@! TO.P,J1,1*
G04 #@! TO.N,/GND*
X168275000Y-170180000D03*
D14*
G04 #@! TO.P,J1,2*
G04 #@! TO.N,/5V*
X168275000Y-167640000D03*
G04 #@! TO.P,J1,3*
G04 #@! TO.N,Net-(D1-Pad1)*
X168275000Y-165100000D03*
G04 #@! TD*
D13*
G04 #@! TO.P,J2,1*
G04 #@! TO.N,Net-(D1-Pad2)*
X162814000Y-160121600D03*
G04 #@! TD*
G04 #@! TO.P,J3,1*
G04 #@! TO.N,/GND*
X134620000Y-135128000D03*
D14*
G04 #@! TO.P,J3,2*
X132080000Y-135128000D03*
G04 #@! TO.P,J3,3*
X129540000Y-135128000D03*
G04 #@! TO.P,J3,4*
G04 #@! TO.N,Net-(J3-Pad4)*
X127000000Y-135128000D03*
G04 #@! TO.P,J3,5*
G04 #@! TO.N,Net-(J3-Pad5)*
X124460000Y-135128000D03*
G04 #@! TO.P,J3,6*
G04 #@! TO.N,Net-(J3-Pad6)*
X121920000Y-135128000D03*
G04 #@! TO.P,J3,7*
G04 #@! TO.N,Net-(J3-Pad7)*
X119380000Y-135128000D03*
G04 #@! TO.P,J3,8*
G04 #@! TO.N,Net-(J3-Pad8)*
X116840000Y-135128000D03*
G04 #@! TO.P,J3,9*
G04 #@! TO.N,/GND*
X114300000Y-135128000D03*
G04 #@! TO.P,J3,10*
G04 #@! TO.N,Net-(J3-Pad10)*
X111760000Y-135128000D03*
G04 #@! TO.P,J3,11*
G04 #@! TO.N,Net-(J3-Pad11)*
X109220000Y-135128000D03*
G04 #@! TO.P,J3,12*
G04 #@! TO.N,Net-(J3-Pad12)*
X106680000Y-135128000D03*
G04 #@! TO.P,J3,13*
G04 #@! TO.N,Net-(J3-Pad13)*
X104140000Y-135128000D03*
G04 #@! TO.P,J3,14*
G04 #@! TO.N,Net-(J3-Pad14)*
X101600000Y-135128000D03*
G04 #@! TO.P,J3,15*
G04 #@! TO.N,Net-(J3-Pad15)*
X99060000Y-135128000D03*
G04 #@! TO.P,J3,16*
G04 #@! TO.N,Net-(J3-Pad16)*
X96520000Y-135128000D03*
G04 #@! TO.P,J3,17*
G04 #@! TO.N,Net-(J3-Pad17)*
X93980000Y-135128000D03*
G04 #@! TO.P,J3,18*
G04 #@! TO.N,Net-(J3-Pad18)*
X91440000Y-135128000D03*
G04 #@! TO.P,J3,19*
G04 #@! TO.N,Net-(J3-Pad19)*
X88900000Y-135128000D03*
G04 #@! TO.P,J3,20*
G04 #@! TO.N,Net-(J3-Pad20)*
X86360000Y-135128000D03*
G04 #@! TD*
D12*
G04 #@! TO.P,J5,1*
G04 #@! TO.N,Net-(J5-Pad1)*
X160020000Y-188595000D03*
D11*
G04 #@! TO.P,J5,2*
G04 #@! TO.N,Net-(D1-Pad1)*
X163520000Y-188595000D03*
G04 #@! TD*
G04 #@! TO.P,J6,2*
G04 #@! TO.N,Net-(D1-Pad1)*
X154630000Y-188595000D03*
D12*
G04 #@! TO.P,J6,1*
G04 #@! TO.N,Net-(J6-Pad1)*
X151130000Y-188595000D03*
G04 #@! TD*
G04 #@! TO.P,J8,1*
G04 #@! TO.N,Net-(J8-Pad1)*
X133660000Y-188595000D03*
D11*
G04 #@! TO.P,J8,2*
G04 #@! TO.N,Net-(D1-Pad1)*
X137160000Y-188595000D03*
G04 #@! TD*
D13*
G04 #@! TO.P,J9,1*
G04 #@! TO.N,Net-(J3-Pad20)*
X86360000Y-138582400D03*
D14*
G04 #@! TO.P,J9,2*
G04 #@! TO.N,Net-(J3-Pad19)*
X88900000Y-138582400D03*
G04 #@! TO.P,J9,3*
G04 #@! TO.N,Net-(J3-Pad18)*
X91440000Y-138582400D03*
G04 #@! TO.P,J9,4*
G04 #@! TO.N,Net-(J3-Pad17)*
X93980000Y-138582400D03*
G04 #@! TO.P,J9,5*
G04 #@! TO.N,Net-(J3-Pad16)*
X96520000Y-138582400D03*
G04 #@! TO.P,J9,6*
G04 #@! TO.N,Net-(J3-Pad15)*
X99060000Y-138582400D03*
G04 #@! TO.P,J9,7*
G04 #@! TO.N,Net-(J3-Pad14)*
X101600000Y-138582400D03*
G04 #@! TO.P,J9,8*
G04 #@! TO.N,Net-(J3-Pad13)*
X104140000Y-138582400D03*
G04 #@! TO.P,J9,9*
G04 #@! TO.N,Net-(J3-Pad12)*
X106680000Y-138582400D03*
G04 #@! TO.P,J9,10*
G04 #@! TO.N,Net-(J3-Pad11)*
X109220000Y-138582400D03*
G04 #@! TO.P,J9,11*
G04 #@! TO.N,Net-(J3-Pad10)*
X111760000Y-138582400D03*
G04 #@! TO.P,J9,12*
G04 #@! TO.N,Net-(J9-Pad12)*
X114300000Y-138582400D03*
G04 #@! TO.P,J9,13*
G04 #@! TO.N,Net-(J3-Pad8)*
X116840000Y-138582400D03*
G04 #@! TO.P,J9,14*
G04 #@! TO.N,Net-(J3-Pad7)*
X119380000Y-138582400D03*
G04 #@! TO.P,J9,15*
G04 #@! TO.N,Net-(J3-Pad6)*
X121920000Y-138582400D03*
G04 #@! TO.P,J9,16*
G04 #@! TO.N,Net-(J3-Pad5)*
X124460000Y-138582400D03*
G04 #@! TO.P,J9,17*
G04 #@! TO.N,Net-(J3-Pad4)*
X127000000Y-138582400D03*
G04 #@! TO.P,J9,18*
G04 #@! TO.N,Net-(J9-Pad18)*
X129540000Y-138582400D03*
G04 #@! TO.P,J9,19*
G04 #@! TO.N,/GND*
X132080000Y-138582400D03*
G04 #@! TO.P,J9,20*
X134620000Y-138582400D03*
G04 #@! TD*
D11*
G04 #@! TO.P,J12,2*
G04 #@! TO.N,Net-(D1-Pad1)*
X111450000Y-188595000D03*
D12*
G04 #@! TO.P,J12,1*
G04 #@! TO.N,Net-(J12-Pad1)*
X107950000Y-188595000D03*
G04 #@! TD*
D14*
G04 #@! TO.P,J16,20*
G04 #@! TO.N,/3.3V*
X134620000Y-155448000D03*
G04 #@! TO.P,J16,19*
G04 #@! TO.N,/GND*
X132080000Y-155448000D03*
G04 #@! TO.P,J16,18*
G04 #@! TO.N,/5V*
X129540000Y-155448000D03*
G04 #@! TO.P,J16,17*
G04 #@! TO.N,Net-(J16-Pad17)*
X127000000Y-155448000D03*
G04 #@! TO.P,J16,16*
G04 #@! TO.N,Net-(J16-Pad16)*
X124460000Y-155448000D03*
G04 #@! TO.P,J16,15*
G04 #@! TO.N,Net-(J16-Pad15)*
X121920000Y-155448000D03*
G04 #@! TO.P,J16,14*
G04 #@! TO.N,Net-(J16-Pad14)*
X119380000Y-155448000D03*
G04 #@! TO.P,J16,13*
G04 #@! TO.N,Net-(J16-Pad13)*
X116840000Y-155448000D03*
G04 #@! TO.P,J16,12*
G04 #@! TO.N,Net-(J16-Pad12)*
X114300000Y-155448000D03*
G04 #@! TO.P,J16,11*
G04 #@! TO.N,Net-(J16-Pad11)*
X111760000Y-155448000D03*
G04 #@! TO.P,J16,10*
G04 #@! TO.N,Net-(J16-Pad10)*
X109220000Y-155448000D03*
G04 #@! TO.P,J16,9*
G04 #@! TO.N,Net-(J16-Pad9)*
X106680000Y-155448000D03*
G04 #@! TO.P,J16,8*
G04 #@! TO.N,Net-(J16-Pad8)*
X104140000Y-155448000D03*
G04 #@! TO.P,J16,7*
G04 #@! TO.N,Net-(J16-Pad7)*
X101600000Y-155448000D03*
G04 #@! TO.P,J16,6*
G04 #@! TO.N,Net-(J16-Pad6)*
X99060000Y-155448000D03*
G04 #@! TO.P,J16,5*
G04 #@! TO.N,Net-(J16-Pad5)*
X96520000Y-155448000D03*
G04 #@! TO.P,J16,4*
G04 #@! TO.N,Net-(J16-Pad4)*
X93980000Y-155448000D03*
G04 #@! TO.P,J16,3*
G04 #@! TO.N,Net-(J16-Pad3)*
X91440000Y-155448000D03*
G04 #@! TO.P,J16,2*
G04 #@! TO.N,Net-(J16-Pad2)*
X88900000Y-155448000D03*
D13*
G04 #@! TO.P,J16,1*
G04 #@! TO.N,Net-(J16-Pad1)*
X86360000Y-155448000D03*
G04 #@! TD*
D14*
G04 #@! TO.P,J17,20*
G04 #@! TO.N,Net-(J16-Pad1)*
X86258400Y-158750000D03*
G04 #@! TO.P,J17,19*
G04 #@! TO.N,Net-(J16-Pad2)*
X88798400Y-158750000D03*
G04 #@! TO.P,J17,18*
G04 #@! TO.N,Net-(J16-Pad3)*
X91338400Y-158750000D03*
G04 #@! TO.P,J17,17*
G04 #@! TO.N,Net-(J16-Pad4)*
X93878400Y-158750000D03*
G04 #@! TO.P,J17,16*
G04 #@! TO.N,Net-(J16-Pad5)*
X96418400Y-158750000D03*
G04 #@! TO.P,J17,15*
G04 #@! TO.N,Net-(J16-Pad6)*
X98958400Y-158750000D03*
G04 #@! TO.P,J17,14*
G04 #@! TO.N,Net-(J16-Pad7)*
X101498400Y-158750000D03*
G04 #@! TO.P,J17,13*
G04 #@! TO.N,Net-(J16-Pad8)*
X104038400Y-158750000D03*
G04 #@! TO.P,J17,12*
G04 #@! TO.N,Net-(J16-Pad9)*
X106578400Y-158750000D03*
G04 #@! TO.P,J17,11*
G04 #@! TO.N,Net-(J16-Pad10)*
X109118400Y-158750000D03*
G04 #@! TO.P,J17,10*
G04 #@! TO.N,Net-(J16-Pad11)*
X111658400Y-158750000D03*
G04 #@! TO.P,J17,9*
G04 #@! TO.N,Net-(J16-Pad12)*
X114198400Y-158750000D03*
G04 #@! TO.P,J17,8*
G04 #@! TO.N,Net-(J16-Pad13)*
X116738400Y-158750000D03*
G04 #@! TO.P,J17,7*
G04 #@! TO.N,Net-(J16-Pad14)*
X119278400Y-158750000D03*
G04 #@! TO.P,J17,6*
G04 #@! TO.N,Net-(J16-Pad15)*
X121818400Y-158750000D03*
G04 #@! TO.P,J17,5*
G04 #@! TO.N,Net-(J16-Pad16)*
X124358400Y-158750000D03*
G04 #@! TO.P,J17,4*
G04 #@! TO.N,Net-(J16-Pad17)*
X126898400Y-158750000D03*
G04 #@! TO.P,J17,3*
G04 #@! TO.N,/5V*
X129438400Y-158750000D03*
G04 #@! TO.P,J17,2*
G04 #@! TO.N,/GND*
X131978400Y-158750000D03*
D13*
G04 #@! TO.P,J17,1*
G04 #@! TO.N,/3.3V*
X134518400Y-158750000D03*
G04 #@! TD*
G04 #@! TO.P,J18,1*
G04 #@! TO.N,Net-(D2-Pad1)*
X166878000Y-156337000D03*
G04 #@! TD*
G04 #@! TO.P,J19,1*
G04 #@! TO.N,Net-(D2-Pad1)*
X170815000Y-159893000D03*
G04 #@! TD*
D17*
G04 #@! TO.P,Q1,1*
G04 #@! TO.N,Net-(J16-Pad12)*
X160655000Y-170815000D03*
D18*
G04 #@! TO.P,Q1,2*
G04 #@! TO.N,Net-(J5-Pad1)*
X160655000Y-176265000D03*
G04 #@! TO.P,Q1,3*
G04 #@! TO.N,/GND*
X160655000Y-181715000D03*
G04 #@! TD*
D17*
G04 #@! TO.P,Q2,1*
G04 #@! TO.N,Net-(J16-Pad11)*
X151765000Y-170815000D03*
D18*
G04 #@! TO.P,Q2,2*
G04 #@! TO.N,Net-(J6-Pad1)*
X151765000Y-176265000D03*
G04 #@! TO.P,Q2,3*
G04 #@! TO.N,/GND*
X151765000Y-181715000D03*
G04 #@! TD*
G04 #@! TO.P,Q3,3*
G04 #@! TO.N,/GND*
X142875000Y-181715000D03*
G04 #@! TO.P,Q3,2*
G04 #@! TO.N,Net-(J7-Pad1)*
X142875000Y-176265000D03*
D17*
G04 #@! TO.P,Q3,1*
G04 #@! TO.N,Net-(J16-Pad10)*
X142875000Y-170815000D03*
G04 #@! TD*
G04 #@! TO.P,Q4,1*
G04 #@! TO.N,Net-(J16-Pad8)*
X134620000Y-170815000D03*
D18*
G04 #@! TO.P,Q4,2*
G04 #@! TO.N,Net-(J8-Pad1)*
X134620000Y-176265000D03*
G04 #@! TO.P,Q4,3*
G04 #@! TO.N,/GND*
X134620000Y-181715000D03*
G04 #@! TD*
G04 #@! TO.P,Q5,3*
G04 #@! TO.N,/GND*
X125730000Y-181715000D03*
G04 #@! TO.P,Q5,2*
G04 #@! TO.N,Net-(J10-Pad1)*
X125730000Y-176265000D03*
D17*
G04 #@! TO.P,Q5,1*
G04 #@! TO.N,Net-(J16-Pad7)*
X125730000Y-170815000D03*
G04 #@! TD*
G04 #@! TO.P,Q6,1*
G04 #@! TO.N,Net-(J16-Pad6)*
X116205000Y-170815000D03*
D18*
G04 #@! TO.P,Q6,2*
G04 #@! TO.N,Net-(J11-Pad1)*
X116205000Y-176265000D03*
G04 #@! TO.P,Q6,3*
G04 #@! TO.N,/GND*
X116205000Y-181715000D03*
G04 #@! TD*
G04 #@! TO.P,Q7,3*
G04 #@! TO.N,/GND*
X108585000Y-181715000D03*
G04 #@! TO.P,Q7,2*
G04 #@! TO.N,Net-(J12-Pad1)*
X108585000Y-176265000D03*
D17*
G04 #@! TO.P,Q7,1*
G04 #@! TO.N,Net-(J16-Pad5)*
X108585000Y-170815000D03*
G04 #@! TD*
G04 #@! TO.P,Q8,1*
G04 #@! TO.N,Net-(J16-Pad4)*
X100330000Y-170815000D03*
D18*
G04 #@! TO.P,Q8,2*
G04 #@! TO.N,Net-(J13-Pad1)*
X100330000Y-176265000D03*
G04 #@! TO.P,Q8,3*
G04 #@! TO.N,/GND*
X100330000Y-181715000D03*
G04 #@! TD*
G04 #@! TO.P,Q9,3*
G04 #@! TO.N,/GND*
X91440000Y-181715000D03*
G04 #@! TO.P,Q9,2*
G04 #@! TO.N,Net-(J14-Pad1)*
X91440000Y-176265000D03*
D17*
G04 #@! TO.P,Q9,1*
G04 #@! TO.N,Net-(J16-Pad3)*
X91440000Y-170815000D03*
G04 #@! TD*
D18*
G04 #@! TO.P,Q10,3*
G04 #@! TO.N,/GND*
X81915000Y-181715000D03*
G04 #@! TO.P,Q10,2*
G04 #@! TO.N,Net-(J15-Pad1)*
X81915000Y-176265000D03*
D17*
G04 #@! TO.P,Q10,1*
G04 #@! TO.N,Net-(J16-Pad2)*
X81915000Y-170815000D03*
G04 #@! TD*
D16*
G04 #@! TO.P,R1,2*
G04 #@! TO.N,Net-(D1-Pad1)*
X164338000Y-146177000D03*
D15*
G04 #@! TO.P,R1,1*
G04 #@! TO.N,/5V*
X164338000Y-143637000D03*
G04 #@! TD*
G04 #@! TO.P,R2,1*
G04 #@! TO.N,/5V*
X169545000Y-143764000D03*
D16*
G04 #@! TO.P,R2,2*
G04 #@! TO.N,/GND*
X169545000Y-146304000D03*
G04 #@! TD*
G04 #@! TO.P,R3,2*
G04 #@! TO.N,Net-(J9-Pad12)*
X160909000Y-133858000D03*
D15*
G04 #@! TO.P,R3,1*
G04 #@! TO.N,/GND*
X160909000Y-136398000D03*
G04 #@! TD*
D16*
G04 #@! TO.P,R4,2*
G04 #@! TO.N,/GND*
X128270000Y-165100000D03*
D15*
G04 #@! TO.P,R4,1*
G04 #@! TO.N,Net-(J16-Pad12)*
X128270000Y-162560000D03*
G04 #@! TD*
G04 #@! TO.P,R5,1*
G04 #@! TO.N,Net-(J16-Pad11)*
X123190000Y-162560000D03*
D16*
G04 #@! TO.P,R5,2*
G04 #@! TO.N,/GND*
X123190000Y-165100000D03*
G04 #@! TD*
G04 #@! TO.P,R6,2*
G04 #@! TO.N,/GND*
X118110000Y-165100000D03*
D15*
G04 #@! TO.P,R6,1*
G04 #@! TO.N,Net-(J16-Pad10)*
X118110000Y-162560000D03*
G04 #@! TD*
G04 #@! TO.P,R7,1*
G04 #@! TO.N,Net-(J16-Pad8)*
X113030000Y-162560000D03*
D16*
G04 #@! TO.P,R7,2*
G04 #@! TO.N,/GND*
X113030000Y-165100000D03*
G04 #@! TD*
D15*
G04 #@! TO.P,R8,1*
G04 #@! TO.N,Net-(J16-Pad7)*
X107950000Y-162560000D03*
D16*
G04 #@! TO.P,R8,2*
G04 #@! TO.N,/GND*
X107950000Y-165100000D03*
G04 #@! TD*
G04 #@! TO.P,R9,2*
G04 #@! TO.N,/GND*
X102870000Y-165100000D03*
D15*
G04 #@! TO.P,R9,1*
G04 #@! TO.N,Net-(J16-Pad6)*
X102870000Y-162560000D03*
G04 #@! TD*
G04 #@! TO.P,R10,1*
G04 #@! TO.N,Net-(J16-Pad5)*
X97790000Y-162560000D03*
D16*
G04 #@! TO.P,R10,2*
G04 #@! TO.N,/GND*
X97790000Y-165100000D03*
G04 #@! TD*
G04 #@! TO.P,R11,2*
G04 #@! TO.N,/GND*
X92710000Y-165100000D03*
D15*
G04 #@! TO.P,R11,1*
G04 #@! TO.N,Net-(J16-Pad4)*
X92710000Y-162560000D03*
G04 #@! TD*
G04 #@! TO.P,R12,1*
G04 #@! TO.N,Net-(J16-Pad3)*
X87630000Y-162560000D03*
D16*
G04 #@! TO.P,R12,2*
G04 #@! TO.N,/GND*
X87630000Y-165100000D03*
G04 #@! TD*
G04 #@! TO.P,R13,2*
G04 #@! TO.N,/GND*
X82550000Y-165100000D03*
D15*
G04 #@! TO.P,R13,1*
G04 #@! TO.N,Net-(J16-Pad2)*
X82550000Y-162560000D03*
G04 #@! TD*
D19*
G04 #@! TO.P,SW1,1*
G04 #@! TO.N,Net-(J9-Pad18)*
X165100000Y-140843000D03*
D20*
G04 #@! TO.P,SW1,2*
G04 #@! TO.N,Net-(J9-Pad12)*
X165100000Y-133223000D03*
G04 #@! TD*
D13*
G04 #@! TO.P,J20,1*
G04 #@! TO.N,/GND*
X146050000Y-156845000D03*
D14*
G04 #@! TO.P,J20,2*
X146050000Y-159385000D03*
G04 #@! TD*
D21*
G04 #@! TO.N,Net-(D1-Pad1)*
X85415000Y-190292056D02*
X86892944Y-191770000D01*
X85415000Y-188595000D02*
X85415000Y-190292056D01*
X170815000Y-167640000D02*
X168275000Y-165100000D01*
X170815000Y-185420000D02*
X170815000Y-167640000D01*
X94330001Y-190307057D02*
X95792944Y-191770000D01*
X94330001Y-188610001D02*
X94330001Y-190307057D01*
X103505000Y-190292056D02*
X104982944Y-191770000D01*
X103505000Y-188595000D02*
X103505000Y-190292056D01*
X112927944Y-191770000D02*
X113665000Y-191770000D01*
X111450000Y-190292056D02*
X112927944Y-191770000D01*
X86892944Y-191770000D02*
X113665000Y-191770000D01*
X111450000Y-188595000D02*
X111450000Y-190292056D01*
X120015000Y-190500000D02*
X121285000Y-191770000D01*
X120015000Y-188595000D02*
X120015000Y-190500000D01*
X113665000Y-191770000D02*
X121285000Y-191770000D01*
X128595000Y-190292056D02*
X130072944Y-191770000D01*
X128595000Y-188595000D02*
X128595000Y-190292056D01*
X121285000Y-191770000D02*
X130810000Y-191770000D01*
X130072944Y-191770000D02*
X130810000Y-191770000D01*
X137160000Y-190500000D02*
X138430000Y-191770000D01*
X137160000Y-188595000D02*
X137160000Y-190500000D01*
X130810000Y-191770000D02*
X138430000Y-191770000D01*
X138430000Y-191770000D02*
X164465000Y-191770000D01*
X145740000Y-190292056D02*
X147217944Y-191770000D01*
X145740000Y-188595000D02*
X145740000Y-190292056D01*
X154630000Y-190292056D02*
X156107944Y-191770000D01*
X154630000Y-188595000D02*
X154630000Y-190292056D01*
X163520000Y-190292056D02*
X164362944Y-191135000D01*
X164362944Y-191135000D02*
X165100000Y-191135000D01*
X163520000Y-188595000D02*
X163520000Y-190292056D01*
X164465000Y-191770000D02*
X165100000Y-191135000D01*
X165100000Y-191135000D02*
X170815000Y-185420000D01*
X146050000Y-140800000D02*
X146050000Y-142240000D01*
X146050000Y-139700000D02*
X146050000Y-140800000D01*
X146050000Y-142240000D02*
X153670000Y-142240000D01*
X157607000Y-146177000D02*
X164338000Y-146177000D01*
X153670000Y-142240000D02*
X157607000Y-146177000D01*
X164338000Y-146177000D02*
X164338000Y-149098000D01*
G04 #@! TO.N,Net-(D1-Pad2)*
X161714000Y-160121600D02*
X159385000Y-157792600D01*
X162814000Y-160121600D02*
X161714000Y-160121600D01*
X159385000Y-156591000D02*
X164338000Y-151638000D01*
X159385000Y-157792600D02*
X159385000Y-156591000D01*
G04 #@! TO.N,Net-(D2-Pad1)*
X167978000Y-156337000D02*
X166878000Y-156337000D01*
X169545000Y-154770000D02*
X167978000Y-156337000D01*
X169545000Y-151638000D02*
X169545000Y-154770000D01*
X168359000Y-156337000D02*
X166878000Y-156337000D01*
X170815000Y-159893000D02*
X170815000Y-158793000D01*
X170815000Y-158793000D02*
X168359000Y-156337000D01*
G04 #@! TO.N,/GND*
X130742081Y-135128000D02*
X132080000Y-135128000D01*
X129540000Y-135128000D02*
X130742081Y-135128000D01*
X132080000Y-136330081D02*
X132080000Y-138582400D01*
X132080000Y-135128000D02*
X132080000Y-136330081D01*
X133282081Y-135128000D02*
X134620000Y-135128000D01*
X132080000Y-135128000D02*
X133282081Y-135128000D01*
X133282081Y-138582400D02*
X134620000Y-138582400D01*
X132080000Y-138582400D02*
X133282081Y-138582400D01*
X134620000Y-137380319D02*
X134620000Y-135128000D01*
X134620000Y-138582400D02*
X134620000Y-137380319D01*
X128690001Y-134278001D02*
X129540000Y-135128000D01*
X128364999Y-133952999D02*
X128690001Y-134278001D01*
X115475001Y-133952999D02*
X128364999Y-133952999D01*
X114300000Y-135128000D02*
X115475001Y-133952999D01*
X160909000Y-136398000D02*
X158623000Y-136398000D01*
X157353000Y-135128000D02*
X134620000Y-135128000D01*
X158623000Y-136398000D02*
X157353000Y-135128000D01*
X160909000Y-136398000D02*
X168783000Y-136398000D01*
X170244999Y-145604001D02*
X169545000Y-146304000D01*
X170570001Y-145278999D02*
X170244999Y-145604001D01*
X170570001Y-138185001D02*
X170570001Y-145278999D01*
X168783000Y-136398000D02*
X170570001Y-138185001D01*
X169545000Y-146304000D02*
X169545000Y-149098000D01*
X131978400Y-155549600D02*
X132080000Y-155448000D01*
X131978400Y-158750000D02*
X131978400Y-155549600D01*
X167005000Y-151638000D02*
X169545000Y-149098000D01*
X167005000Y-153035000D02*
X167005000Y-151638000D01*
X164465000Y-162560000D02*
X164465000Y-155575000D01*
X164465000Y-155575000D02*
X167005000Y-153035000D01*
X131978400Y-158750000D02*
X135788400Y-162560000D01*
X164465000Y-167470000D02*
X164465000Y-162560000D01*
X167175000Y-170180000D02*
X164465000Y-167470000D01*
X168275000Y-170180000D02*
X167175000Y-170180000D01*
X146050000Y-162560000D02*
X146050000Y-159385000D01*
X146050000Y-162560000D02*
X164465000Y-162560000D01*
X135788400Y-162560000D02*
X146050000Y-162560000D01*
X146050000Y-159385000D02*
X146050000Y-156845000D01*
G04 #@! TO.N,/5V*
X169418000Y-143637000D02*
X169545000Y-143764000D01*
X164338000Y-143637000D02*
X169418000Y-143637000D01*
X129540000Y-158648400D02*
X129438400Y-158750000D01*
X129540000Y-155448000D02*
X129540000Y-158648400D01*
X146050000Y-147320000D02*
X146050000Y-144780000D01*
X137668000Y-147320000D02*
X146050000Y-147320000D01*
X129540000Y-155448000D02*
X137668000Y-147320000D01*
G04 #@! TO.N,Net-(J3-Pad4)*
X127000000Y-136330081D02*
X127000000Y-138582400D01*
X127000000Y-135128000D02*
X127000000Y-136330081D01*
G04 #@! TO.N,Net-(J3-Pad5)*
X124460000Y-138582400D02*
X124460000Y-135128000D01*
G04 #@! TO.N,Net-(J3-Pad6)*
X121920000Y-136330081D02*
X121920000Y-138582400D01*
X121920000Y-135128000D02*
X121920000Y-136330081D01*
G04 #@! TO.N,Net-(J3-Pad7)*
X119380000Y-136330081D02*
X119380000Y-138582400D01*
X119380000Y-135128000D02*
X119380000Y-136330081D01*
G04 #@! TO.N,Net-(J3-Pad8)*
X116840000Y-138582400D02*
X116840000Y-135128000D01*
G04 #@! TO.N,Net-(J3-Pad10)*
X111760000Y-135128000D02*
X111760000Y-138582400D01*
G04 #@! TO.N,Net-(J3-Pad11)*
X109220000Y-136330081D02*
X109220000Y-138582400D01*
X109220000Y-135128000D02*
X109220000Y-136330081D01*
G04 #@! TO.N,Net-(J3-Pad12)*
X106680000Y-135128000D02*
X106680000Y-138582400D01*
G04 #@! TO.N,Net-(J3-Pad13)*
X104140000Y-135128000D02*
X104140000Y-138582400D01*
G04 #@! TO.N,Net-(J3-Pad14)*
X101600000Y-138582400D02*
X101600000Y-135128000D01*
G04 #@! TO.N,Net-(J3-Pad15)*
X99060000Y-135128000D02*
X99060000Y-138582400D01*
G04 #@! TO.N,Net-(J3-Pad16)*
X96520000Y-135128000D02*
X96520000Y-138582400D01*
G04 #@! TO.N,Net-(J3-Pad17)*
X93980000Y-135128000D02*
X93980000Y-138582400D01*
G04 #@! TO.N,Net-(J3-Pad18)*
X91440000Y-135128000D02*
X91440000Y-138582400D01*
G04 #@! TO.N,Net-(J3-Pad19)*
X88900000Y-135128000D02*
X88900000Y-138582400D01*
G04 #@! TO.N,Net-(J3-Pad20)*
X86360000Y-135128000D02*
X86360000Y-138582400D01*
G04 #@! TO.N,/3.3V*
X134620000Y-158648400D02*
X134518400Y-158750000D01*
X134620000Y-155448000D02*
X134620000Y-158648400D01*
X137668000Y-152400000D02*
X146050000Y-152400000D01*
X134620000Y-155448000D02*
X137668000Y-152400000D01*
X146050000Y-152400000D02*
X146050000Y-149860000D01*
G04 #@! TO.N,Net-(J5-Pad1)*
X158079990Y-185204990D02*
X160020000Y-187145000D01*
X158079990Y-180340010D02*
X158079990Y-185204990D01*
X160020000Y-187145000D02*
X160020000Y-188595000D01*
X160655000Y-177765000D02*
X158079990Y-180340010D01*
X160655000Y-176265000D02*
X160655000Y-177765000D01*
G04 #@! TO.N,Net-(J6-Pad1)*
X151130000Y-187145000D02*
X151130000Y-188595000D01*
X149189990Y-185204990D02*
X151130000Y-187145000D01*
X149189990Y-176340010D02*
X149189990Y-185204990D01*
X149265000Y-176265000D02*
X149189990Y-176340010D01*
X151765000Y-176265000D02*
X149265000Y-176265000D01*
G04 #@! TO.N,Net-(J7-Pad1)*
X142240000Y-187145000D02*
X142240000Y-188595000D01*
X140299990Y-176340010D02*
X140299990Y-185204990D01*
X140375000Y-176265000D02*
X140299990Y-176340010D01*
X140299990Y-185204990D02*
X142240000Y-187145000D01*
X142875000Y-176265000D02*
X140375000Y-176265000D01*
G04 #@! TO.N,Net-(J8-Pad1)*
X133660000Y-187145000D02*
X133660000Y-188595000D01*
X132044990Y-185529990D02*
X133660000Y-187145000D01*
X132120000Y-176265000D02*
X132044990Y-176340010D01*
X132044990Y-176340010D02*
X132044990Y-185529990D01*
X134620000Y-176265000D02*
X132120000Y-176265000D01*
G04 #@! TO.N,Net-(J9-Pad12)*
X160209001Y-133158001D02*
X160909000Y-133858000D01*
X114530997Y-133158001D02*
X160209001Y-133158001D01*
X112935001Y-134753997D02*
X114530997Y-133158001D01*
X112935001Y-137217401D02*
X112935001Y-134753997D01*
X114300000Y-138582400D02*
X112935001Y-137217401D01*
X164465000Y-133858000D02*
X165100000Y-133223000D01*
X160909000Y-133858000D02*
X164465000Y-133858000D01*
G04 #@! TO.N,Net-(J9-Pad18)*
X134620000Y-142240000D02*
X133197600Y-142240000D01*
X140335000Y-136525000D02*
X134620000Y-142240000D01*
X133197600Y-142240000D02*
X129540000Y-138582400D01*
X165100000Y-140843000D02*
X157353000Y-140843000D01*
X153035000Y-136525000D02*
X140335000Y-136525000D01*
X157353000Y-140843000D02*
X153035000Y-136525000D01*
G04 #@! TO.N,Net-(J10-Pad1)*
X125095000Y-187145000D02*
X125095000Y-188595000D01*
X123154990Y-176340010D02*
X123154990Y-185204990D01*
X123154990Y-185204990D02*
X125095000Y-187145000D01*
X123230000Y-176265000D02*
X123154990Y-176340010D01*
X125730000Y-176265000D02*
X123230000Y-176265000D01*
G04 #@! TO.N,Net-(J11-Pad1)*
X116515000Y-187145000D02*
X116515000Y-188595000D01*
X113629990Y-184259990D02*
X116515000Y-187145000D01*
X113705000Y-176265000D02*
X113629990Y-176340010D01*
X113629990Y-176340010D02*
X113629990Y-184259990D01*
X116205000Y-176265000D02*
X113705000Y-176265000D01*
G04 #@! TO.N,Net-(J12-Pad1)*
X107950000Y-187145000D02*
X107950000Y-188595000D01*
X106009990Y-176340010D02*
X106009990Y-185204990D01*
X106009990Y-185204990D02*
X107950000Y-187145000D01*
X106085000Y-176265000D02*
X106009990Y-176340010D01*
X108585000Y-176265000D02*
X106085000Y-176265000D01*
G04 #@! TO.N,Net-(J13-Pad1)*
X100005000Y-187145000D02*
X100005000Y-188595000D01*
X97754990Y-184894990D02*
X100005000Y-187145000D01*
X97830000Y-176265000D02*
X97754990Y-176340010D01*
X97754990Y-176340010D02*
X97754990Y-184894990D01*
X100330000Y-176265000D02*
X97830000Y-176265000D01*
G04 #@! TO.N,Net-(J14-Pad1)*
X88864990Y-185194990D02*
X90830001Y-187160001D01*
X88864990Y-176340010D02*
X88864990Y-185194990D01*
X90830001Y-187160001D02*
X90830001Y-188610001D01*
X88940000Y-176265000D02*
X88864990Y-176340010D01*
X91440000Y-176265000D02*
X88940000Y-176265000D01*
G04 #@! TO.N,Net-(J15-Pad1)*
X81915000Y-187145000D02*
X81915000Y-188595000D01*
X79339990Y-176340010D02*
X79339990Y-184569990D01*
X79339990Y-184569990D02*
X81915000Y-187145000D01*
X79415000Y-176265000D02*
X79339990Y-176340010D01*
X81915000Y-176265000D02*
X79415000Y-176265000D01*
G04 #@! TO.N,Net-(J16-Pad17)*
X127000000Y-158648400D02*
X126898400Y-158750000D01*
X127000000Y-155448000D02*
X127000000Y-158648400D01*
G04 #@! TO.N,Net-(J16-Pad16)*
X124460000Y-158648400D02*
X124358400Y-158750000D01*
X124460000Y-155448000D02*
X124460000Y-158648400D01*
G04 #@! TO.N,Net-(J16-Pad15)*
X121920000Y-158648400D02*
X121818400Y-158750000D01*
X121920000Y-155448000D02*
X121920000Y-158648400D01*
G04 #@! TO.N,Net-(J16-Pad14)*
X119380000Y-158648400D02*
X119278400Y-158750000D01*
X119380000Y-155448000D02*
X119380000Y-158648400D01*
G04 #@! TO.N,Net-(J16-Pad13)*
X116840000Y-158648400D02*
X116738400Y-158750000D01*
X116840000Y-155448000D02*
X116840000Y-158648400D01*
G04 #@! TO.N,Net-(J16-Pad12)*
X114300000Y-158648400D02*
X114198400Y-158750000D01*
X114300000Y-155448000D02*
X114300000Y-158648400D01*
X114999398Y-158750000D02*
X114198400Y-158750000D01*
X116174399Y-159925001D02*
X114999398Y-158750000D01*
X125635001Y-159925001D02*
X116174399Y-159925001D01*
X128270000Y-162560000D02*
X125635001Y-159925001D01*
G04 #@! TO.N,Net-(J16-Pad11)*
X111760000Y-158648400D02*
X111658400Y-158750000D01*
X111760000Y-155448000D02*
X111760000Y-158648400D01*
X122490001Y-161860001D02*
X123190000Y-162560000D01*
X121005010Y-160375010D02*
X122490001Y-161860001D01*
X113283410Y-160375010D02*
X121005010Y-160375010D01*
X111658400Y-158750000D02*
X113283410Y-160375010D01*
G04 #@! TO.N,Net-(J16-Pad10)*
X109220000Y-158648400D02*
X109118400Y-158750000D01*
X109220000Y-155448000D02*
X109220000Y-158648400D01*
X114831990Y-162560000D02*
X117120051Y-162560000D01*
X112476981Y-160204991D02*
X114831990Y-162560000D01*
X117120051Y-162560000D02*
X118110000Y-162560000D01*
X110573391Y-160204991D02*
X112476981Y-160204991D01*
X109118400Y-158750000D02*
X110573391Y-160204991D01*
G04 #@! TO.N,Net-(J16-Pad9)*
X106578400Y-155549600D02*
X106680000Y-155448000D01*
X106578400Y-158750000D02*
X106578400Y-155549600D01*
G04 #@! TO.N,Net-(J16-Pad8)*
X104038400Y-159952081D02*
X104741319Y-160655000D01*
X104038400Y-158750000D02*
X104038400Y-159952081D01*
X111125000Y-160655000D02*
X113030000Y-162560000D01*
X104741319Y-160655000D02*
X111125000Y-160655000D01*
X104038400Y-155549600D02*
X104140000Y-155448000D01*
X104038400Y-158750000D02*
X104038400Y-155549600D01*
G04 #@! TO.N,Net-(J16-Pad7)*
X101498400Y-159952081D02*
X102836319Y-161290000D01*
X101498400Y-158750000D02*
X101498400Y-159952081D01*
X106680000Y-161290000D02*
X107950000Y-162560000D01*
X102836319Y-161290000D02*
X106680000Y-161290000D01*
X101600000Y-158648400D02*
X101498400Y-158750000D01*
X101600000Y-155448000D02*
X101600000Y-158648400D01*
G04 #@! TO.N,Net-(J16-Pad6)*
X102870000Y-162560000D02*
X100330000Y-162560000D01*
X100330000Y-162560000D02*
X100330000Y-161925000D01*
X98958400Y-160553400D02*
X98958400Y-158750000D01*
X100330000Y-161925000D02*
X98958400Y-160553400D01*
X99060000Y-158648400D02*
X98958400Y-158750000D01*
X99060000Y-155448000D02*
X99060000Y-158648400D01*
G04 #@! TO.N,Net-(J16-Pad5)*
X97790000Y-160121600D02*
X96418400Y-158750000D01*
X97790000Y-162560000D02*
X97790000Y-160121600D01*
X96520000Y-158648400D02*
X96418400Y-158750000D01*
X96520000Y-155448000D02*
X96520000Y-158648400D01*
G04 #@! TO.N,Net-(J16-Pad4)*
X92710000Y-159918400D02*
X93878400Y-158750000D01*
X92710000Y-162560000D02*
X92710000Y-159918400D01*
X93980000Y-158648400D02*
X93878400Y-158750000D01*
X93980000Y-155448000D02*
X93980000Y-158648400D01*
G04 #@! TO.N,Net-(J16-Pad3)*
X91338400Y-158851600D02*
X91338400Y-158750000D01*
X87630000Y-162560000D02*
X91338400Y-158851600D01*
X91440000Y-158648400D02*
X91338400Y-158750000D01*
X91440000Y-155448000D02*
X91440000Y-158648400D01*
G04 #@! TO.N,Net-(J16-Pad2)*
X88900000Y-158648400D02*
X88798400Y-158750000D01*
X88900000Y-155448000D02*
X88900000Y-158648400D01*
X87147403Y-159599999D02*
X86727402Y-160020000D01*
X88798400Y-158750000D02*
X87948401Y-159599999D01*
X87948401Y-159599999D02*
X87147403Y-159599999D01*
X85090000Y-160020000D02*
X82550000Y-162560000D01*
X86727402Y-160020000D02*
X85090000Y-160020000D01*
G04 #@! TO.N,Net-(J16-Pad1)*
X86360000Y-158648400D02*
X86258400Y-158750000D01*
X86360000Y-155448000D02*
X86360000Y-158648400D01*
G04 #@! TO.N,Net-(J16-Pad12)*
X158155000Y-170815000D02*
X160655000Y-170815000D01*
X150599999Y-163259999D02*
X158155000Y-170815000D01*
X128969999Y-163259999D02*
X150599999Y-163259999D01*
X128270000Y-162560000D02*
X128969999Y-163259999D01*
G04 #@! TO.N,Net-(J16-Pad11)*
X149265000Y-170815000D02*
X143510000Y-165060000D01*
X151765000Y-170815000D02*
X149265000Y-170815000D01*
X143510000Y-165060000D02*
X143510000Y-163830000D01*
X124460000Y-163830000D02*
X123190000Y-162560000D01*
X143510000Y-163830000D02*
X124460000Y-163830000D01*
G04 #@! TO.N,Net-(J16-Pad10)*
X140375000Y-170815000D02*
X142875000Y-170815000D01*
X135930000Y-166370000D02*
X140375000Y-170815000D01*
X125977002Y-166370000D02*
X135930000Y-166370000D01*
X123192003Y-163585001D02*
X125977002Y-166370000D01*
X119135001Y-163585001D02*
X123192003Y-163585001D01*
X118110000Y-162560000D02*
X119135001Y-163585001D01*
G04 #@! TO.N,Net-(J16-Pad8)*
X115220581Y-163585001D02*
X114195580Y-162560000D01*
X118498591Y-163585001D02*
X115220581Y-163585001D01*
X129625010Y-166820010D02*
X121733600Y-166820010D01*
X121733600Y-166820010D02*
X118498591Y-163585001D01*
X133620000Y-170815000D02*
X129625010Y-166820010D01*
X114195580Y-162560000D02*
X113030000Y-162560000D01*
X134620000Y-170815000D02*
X133620000Y-170815000D01*
G04 #@! TO.N,Net-(J16-Pad7)*
X115140010Y-164035010D02*
X121920000Y-170815000D01*
X121920000Y-170815000D02*
X125730000Y-170815000D01*
X107950000Y-162560000D02*
X109425010Y-164035010D01*
X109425010Y-164035010D02*
X115140010Y-164035010D01*
G04 #@! TO.N,Net-(J16-Pad6)*
X113705000Y-170815000D02*
X110490000Y-167600000D01*
X116205000Y-170815000D02*
X113705000Y-170815000D01*
X103569999Y-163259999D02*
X102870000Y-162560000D01*
X103895001Y-163585001D02*
X103569999Y-163259999D01*
X107952003Y-163585001D02*
X103895001Y-163585001D01*
X110490000Y-166122998D02*
X107952003Y-163585001D01*
X110490000Y-167600000D02*
X110490000Y-166122998D01*
G04 #@! TO.N,Net-(J16-Pad5)*
X106045000Y-170815000D02*
X108585000Y-170815000D01*
X97790000Y-162560000D02*
X106045000Y-170815000D01*
G04 #@! TO.N,Net-(J16-Pad4)*
X100330000Y-170180000D02*
X100330000Y-170815000D01*
X92710000Y-162560000D02*
X100330000Y-170180000D01*
G04 #@! TO.N,Net-(J16-Pad3)*
X90440000Y-170815000D02*
X91440000Y-170815000D01*
X91440000Y-166370000D02*
X91440000Y-170815000D01*
X87630000Y-162560000D02*
X91440000Y-166370000D01*
G04 #@! TO.N,Net-(J16-Pad2)*
X82550000Y-170180000D02*
X81915000Y-170815000D01*
G04 #@! TD*
M02*
